<?xml version="1.0" standalone="no"?>
<!DOCTYPE svg PUBLIC "-//W3C//DTD SVG 1.1//EN" "http://www.w3.org/Graphics/SVG/1.1/DTD/svg11.dtd" >
<svg xmlns="http://www.w3.org/2000/svg" xmlns:xlink="http://www.w3.org/1999/xlink" version="1.1">
<metadata></metadata>
<defs>
<font id="yeseva_oneregular" horiz-adv-x="1085" >
<font-face units-per-em="2048" ascent="1638" descent="-410" />
<missing-glyph horiz-adv-x="573" />
<glyph horiz-adv-x="2048" />
<glyph horiz-adv-x="2048" />
<glyph unicode="&#xd;" horiz-adv-x="573" />
<glyph unicode=" "  horiz-adv-x="573" />
<glyph unicode="&#x09;" horiz-adv-x="573" />
<glyph unicode="&#xa0;" horiz-adv-x="573" />
<glyph unicode="!" horiz-adv-x="634" d="M123 1229q0 109 58.5 172t135.5 63q78 0 136.5 -63.5t58.5 -171.5l-164 -789h-61zM164 143q0 70 46 117t107 47t107.5 -47t46.5 -117t-46 -116.5t-108 -46.5q-61 0 -107 47t-46 116z" />
<glyph unicode="&#x22;" horiz-adv-x="757" d="M92 1311q0 70 35 106.5t88 36.5t88 -37t35 -106l-82 -400h-82zM420 1311q0 70 35 106.5t88 36.5t88 -37t35 -106l-82 -400h-82z" />
<glyph unicode="#" horiz-adv-x="1331" d="M41 379v102h256l121 471h-275v103h301l99 379h123l-99 -379h369l98 379h123l-98 -379h231v-103h-258l-121 -471h277v-102h-303l-97 -379h-122l96 379h-369l-96 -379h-123l96 379h-229zM420 481h368l121 471h-368z" />
<glyph unicode="$" horiz-adv-x="1218" d="M72 -10v389h82q31 -100 86 -180q25 -35 55.5 -67t70.5 -56.5t89 -40t108 -15.5q20 0 31 3v522q-80 49 -169 99t-163 113.5t-122 147.5t-48 201q0 74 31 138.5t93.5 113.5t156.5 77.5t221 28.5v133h61v-139q59 -10 108.5 -29.5t84.5 -42.5q41 -25 74 -55q16 27 35.5 48.5 t35.5 35.5q20 16 41 29h51v-389h-81q-27 94 -76 172q-20 33 -48 64.5t-62 57t-73.5 42t-89.5 20.5v-508q80 -51 170 -100t166 -109.5t126 -138.5t50 -186q0 -78 -31.5 -146.5t-95 -123t-160 -88.5t-225.5 -40v-135h-61v133q-86 2 -152.5 22.5t-113.5 45.5q-53 29 -92 65 q-16 -29 -36 -49t-36 -35q-20 -16 -41 -28h-51zM440 1188q0 -78 43 -136.5t111 -107.5v463q-66 -16 -110 -74.5t-44 -144.5zM655 35q76 25 120 87t44 154q0 72 -46 128.5t-118 103.5v-473z" />
<glyph unicode="%" horiz-adv-x="1536" d="M61 1096q0 80 26 146.5t71 113.5t106.5 72.5t134.5 25.5q74 0 135.5 -25.5t106.5 -72.5t70.5 -113.5t25.5 -146.5t-25.5 -146.5t-70.5 -114t-106.5 -73t-135.5 -25.5t-135 25.5t-106 73t-71 114t-26 146.5zM184 0l1055 1434h113l-1055 -1434h-113zM287 1096 q0 -96 10 -157.5t26.5 -97.5t37 -49.5t38.5 -13.5t39 13.5t37.5 49.5t26.5 97.5t10 157.5t-10 157.5t-26.5 97t-37 49t-39.5 13.5q-18 0 -38.5 -13.5t-37 -49t-26.5 -97t-10 -157.5zM799 338q0 80 25.5 146.5t70.5 113.5t106.5 72.5t135.5 25.5t135 -25.5t106 -72.5 t71 -113.5t26 -146.5t-26 -146.5t-71 -113.5t-106.5 -72.5t-134.5 -25.5q-74 0 -135.5 25.5t-106.5 72.5t-70.5 113.5t-25.5 146.5zM1024 338q0 -96 10 -157.5t26.5 -97.5t37 -49.5t39.5 -13.5q18 0 38.5 13.5t37 49.5t26.5 97.5t10 157.5t-10 157.5t-26.5 97.5t-37 49 t-38.5 13t-39 -13t-37.5 -49t-26.5 -97.5t-10 -157.5z" />
<glyph unicode="&#x26;" horiz-adv-x="1413" d="M41 328q0 57 17.5 104t45 84t63.5 65.5t73 51.5q88 49 200 74l-112 163q-37 53 -70 122t-33 155q0 66 27 123t80 100t131 68.5t182 25.5q66 0 119 -21.5t90 -45.5q43 -29 78 -66q16 27 35.5 48.5t36.5 35.5q20 16 40 29h52v-389h-82q-29 98 -76 178q-20 33 -46 65.5 t-56.5 58t-68.5 41t-81 15.5q-61 0 -107.5 -49t-46.5 -135q0 -39 13.5 -78t33 -76t42 -68.5t38.5 -54.5l365 -512q18 35 35 76q14 35 25.5 83t11.5 108l-164 61v31h379v-31l-164 -61q0 -61 -14.5 -119t-30.5 -103q-20 -53 -43 -96l231 -328l103 -30v-31h-287 q-86 0 -145.5 27.5t-90.5 74.5q-33 -39 -75 -67q-37 -25 -93.5 -45.5t-128.5 -20.5q-145 0 -246.5 25.5t-165 73t-92 114t-28.5 146.5zM389 328q0 -154 66.5 -231t158.5 -77q49 0 91.5 19.5t70.5 42.5q35 27 64 61l-369 523q-23 -25 -41 -70q-16 -39 -28.5 -103.5 t-12.5 -164.5z" />
<glyph unicode="'" horiz-adv-x="430" d="M92 1311q0 70 35 106.5t88 36.5t88 -37t35 -106l-82 -400h-82z" />
<glyph unicode="(" horiz-adv-x="727" d="M102 543q0 180 46.5 335.5t125 284.5t183 232.5t219.5 181.5l20 -31q-61 -80 -107 -188.5t-77 -236.5t-46 -274t-15 -304t15 -304.5t46 -274.5t77 -236.5t107 -188.5l-20 -31q-115 76 -219.5 180.5t-183 233.5t-125 284.5t-46.5 336.5z" />
<glyph unicode=")" horiz-adv-x="727" d="M31 -461q61 80 107 188.5t77 236.5t46 274.5t15 304.5t-15 304t-46 274t-77 236.5t-107 188.5l20 31q115 -78 219.5 -181.5t183 -232.5t125 -284.5t46.5 -335.5t-46.5 -336t-125 -285t-183 -233.5t-219.5 -180.5z" />
<glyph unicode="*" horiz-adv-x="798" d="M87 1001.5q11 34.5 46 53.5l205 51l-205 51q-35 18 -46 53t5 70t57 43t76 -12l144 -154l-62 205q0 39 26.5 65.5t65.5 26.5t66 -26.5t27 -65.5l-62 -205l143 154q35 20 76 12t58 -43q16 -35 4.5 -69.5t-45.5 -53.5l-205 -51l205 -51q35 -18 46 -53t-5 -70t-57.5 -43 t-76.5 12l-143 154l62 -205q0 -39 -27 -65.5t-66 -26.5t-65.5 26.5t-26.5 65.5l62 205l-144 -154q-35 -20 -75.5 -12t-57.5 43q-16 35 -5 69.5z" />
<glyph unicode="+" horiz-adv-x="1054" d="M72 635v92h409v440h92v-440h410v-92h-410v-440h-92v440h-409z" />
<glyph unicode="," horiz-adv-x="501" d="M92 133q0 61 46 107.5t108 46.5q70 0 117 -49.5t47 -135.5q0 -113 -38 -183.5t-85 -111.5q-53 -49 -123 -73l-21 51q47 16 86 47q35 27 66 70t43 108q-12 -8 -27 -16q-29 -14 -65 -14q-61 0 -107.5 46t-46.5 107z" />
<glyph unicode="-" horiz-adv-x="962" d="M72 614v93h819v-93h-819z" />
<glyph unicode="." horiz-adv-x="491" d="M92 133q0 61 46 107.5t108 46.5q61 0 107 -46.5t46 -107.5t-46 -107t-107 -46t-107.5 46t-46.5 107z" />
<glyph unicode="/" horiz-adv-x="716" d="M-41 -102l707 1638h92l-707 -1638h-92z" />
<glyph unicode="0" horiz-adv-x="1372" d="M92 717q0 180 47 319.5t127 234.5t188.5 144t231.5 49t231.5 -49t188.5 -144t127 -234.5t47 -319.5t-47 -319.5t-127 -234.5t-188.5 -144.5t-231.5 -49.5t-231.5 49.5t-188.5 144.5t-127 234.5t-47 319.5zM451 717q0 -219 20.5 -356.5t54 -215t75.5 -106.5t85 -29t85 29 t76 106.5t54.5 215t20.5 356.5t-20.5 356t-54.5 215t-76 106.5t-85 28.5t-85 -28.5t-75.5 -106.5t-54 -215t-20.5 -356z" />
<glyph unicode="1" horiz-adv-x="849" d="M31 1096l372 338h222v-1362l143 -41v-31h-625v31l144 41v1124l-215 -152z" />
<glyph unicode="2" horiz-adv-x="1177" d="M61 0v92q0 125 48.5 221.5t121 176t157.5 150.5t157.5 143.5t121 155.5t48.5 187q0 139 -67.5 213t-168.5 74q-39 0 -68.5 -5t-52.5 -11q-25 -8 -43 -15v-327q-14 -4 -26 -6t-25.5 -3.5t-30.5 -1.5q-70 0 -111.5 42t-41.5 112q0 45 26.5 93t82 86t138.5 62.5t193 24.5 q141 0 244.5 -29.5t169 -84t97.5 -132.5t32 -174q0 -123 -59.5 -207.5t-150.5 -148t-201.5 -115t-214 -108.5t-186.5 -128t-118 -173h758q8 61 27.5 107t42.5 77q25 37 53 62h61v-410h-1014z" />
<glyph unicode="3" horiz-adv-x="1198" d="M51 236q0 70 42 111.5t112 41.5q16 0 29.5 -2t25.5 -4t27 -4v-328q18 -8 43 -16q23 -6 52.5 -10.5t68.5 -4.5q139 0 218 85t79 264q0 184 -77 271t-200 87h-102v51h102q43 0 82 19.5t68.5 58.5t47 99.5t17.5 140.5q0 162 -66.5 239.5t-158.5 77.5q-31 0 -57.5 -5 t-45.5 -11q-23 -8 -41 -15v-327q-14 -4 -26 -6t-25.5 -3.5t-29.5 -1.5q-70 0 -112 42t-42 112q0 45 26.5 93t80 86t131 62.5t182.5 24.5q135 0 234.5 -30.5t166 -80.5t99 -117t32.5 -140q0 -63 -18.5 -111.5t-49 -84.5t-69.5 -59.5t-78 -39.5q-96 -37 -215 -43v-10 q137 -6 246 -48q45 -18 90 -45.5t79 -67.5t55.5 -94.5t21.5 -123.5q0 -84 -34 -158t-106.5 -127t-187.5 -84t-276 -31q-111 0 -194 24.5t-138.5 62.5t-82 85t-26.5 95z" />
<glyph unicode="4" horiz-adv-x="1228" d="M0 440l768 1014h195v-983h215v-92h-215v-307l143 -41v-31h-625v31l144 41v307h-584zM113 471h512v676z" />
<glyph unicode="5" horiz-adv-x="1167" d="M72 236q0 70 42 111.5t111 41.5q16 0 29.5 -2t26.5 -4q12 -2 26 -4v-328q18 -8 43 -16q23 -6 52.5 -10.5t68.5 -4.5q57 0 106.5 23t84 73t55 130t20.5 194q0 223 -76.5 316.5t-209.5 93.5q-59 0 -109.5 -21.5t-91.5 -46.5q-47 -29 -86 -65l-41 31l82 686h604 q8 61 27.5 107t42.5 77q25 37 53 61h61v-399h-743l-55 -471q37 25 84 45q41 16 94 31.5t119 15.5q154 0 265 -32.5t185 -93t108.5 -145.5t34.5 -190q0 -215 -141 -343t-432 -128q-111 0 -193.5 24.5t-138 62.5t-82 85t-26.5 95z" />
<glyph unicode="6" horiz-adv-x="1269" d="M102 717q0 188 43 328.5t121 233.5t189.5 139t251.5 46q96 0 170.5 -24.5t125 -62.5t77 -86t26.5 -93q0 -70 -42 -112t-112 -42q-16 0 -31.5 1.5t-25.5 3.5q-14 2 -25 6v327q-18 6 -39 15q-16 6 -38 11t-45 5q-70 0 -125.5 -25.5t-93 -98t-58 -200.5t-20.5 -331 q20 35 55 61q29 23 74 42.5t106 19.5q115 0 206 -33t154.5 -91.5t97.5 -139t34 -177.5q0 -215 -134.5 -343t-388.5 -128q-123 0 -224 43t-175 134.5t-114 232.5t-40 338zM461 492q0 -141 17.5 -234.5t45 -149t62 -77t69.5 -21.5q27 0 57.5 20.5t56.5 68.5t43 127t17 194 t-17 193.5t-44 126.5t-59.5 68.5t-63.5 20.5q-39 0 -72.5 -18t-58.5 -58t-39 -104.5t-14 -156.5z" />
<glyph unicode="7" d="M61 1034v400h973v-93q0 -100 -27.5 -188t-70.5 -177t-91 -185.5t-91 -212t-71 -258t-28 -320.5h-358q0 174 41 309t104.5 244t142.5 199t153.5 174t138 169t96.5 185h-727q-8 -61 -27.5 -107.5t-42.5 -76.5q-25 -37 -53 -62h-62z" />
<glyph unicode="8" horiz-adv-x="1259" d="M82 338q0 57 26.5 113.5t72.5 105.5t107.5 88t131.5 62q-61 35 -112.5 73.5t-87.5 85.5t-56.5 103.5t-20.5 126.5q0 76 31 143.5t95.5 117.5t162.5 78.5t234 28.5q100 0 180 -28.5t135 -74.5t85 -104.5t30 -119.5q0 -49 -23.5 -98.5t-61.5 -90.5t-88.5 -72.5 t-103.5 -46.5q178 -78 278.5 -189.5t100.5 -281.5q0 -78 -35 -147.5t-108.5 -123.5t-185 -86t-265.5 -32q-135 0 -233.5 29t-163 79t-95 116.5t-30.5 144.5zM256 338q0 -66 25.5 -123t69.5 -100t103.5 -69t129.5 -26q131 0 203.5 73t72.5 204q0 100 -98 199.5t-260 169.5 q-109 -39 -177.5 -118t-68.5 -210zM481 1157q0 -164 277 -287q70 31 122 94.5t52 172.5q0 57 -21.5 107t-55.5 88t-79 59.5t-90 21.5q-86 0 -145.5 -66.5t-59.5 -189.5z" />
<glyph unicode="9" horiz-adv-x="1269" d="M92 993q0 215 134 343t388 128q123 0 224.5 -43t175 -134t113.5 -232.5t40 -337.5q0 -188 -43 -328.5t-120.5 -234t-190.5 -139.5t-250 -46q-96 0 -171 24.5t-125 62.5t-76.5 85t-26.5 95q0 70 42 111.5t111 41.5q16 0 29.5 -2t26.5 -4q12 -2 26 -4v-328q18 -8 39 -16 q39 -15 84 -15q70 0 124 26t93 98.5t59.5 200.5t20.5 331q-23 -35 -57 -62q-29 -23 -73 -42t-105 -19q-115 0 -206 32.5t-154.5 91t-97.5 139.5t-34 177zM440 1014q0 -115 17.5 -194t44 -127t59.5 -68.5t64 -20.5q39 0 72.5 18.5t58 58.5t39 104.5t14.5 156.5 q0 141 -17.5 234.5t-45 148.5t-62.5 76.5t-70 21.5q-27 0 -57.5 -20.5t-56 -68.5t-43 -127t-17.5 -193z" />
<glyph unicode=":" horiz-adv-x="491" d="M92 133q0 61 46 107.5t108 46.5q61 0 107 -46.5t46 -107.5t-46 -107t-107 -46t-107.5 46t-46.5 107zM92 891q0 61 46 107t108 46q61 0 107 -46t46 -107t-46 -107.5t-107 -46.5t-107.5 46t-46.5 108z" />
<glyph unicode=";" horiz-adv-x="501" d="M92 133q0 61 46 107.5t108 46.5q70 0 117 -49.5t47 -135.5q0 -113 -38 -183.5t-85 -111.5q-53 -49 -123 -73l-21 51q47 16 86 47q35 27 66 70t43 108q-12 -8 -27 -16q-29 -14 -65 -14q-61 0 -107.5 46t-46.5 107zM92 891q0 61 46 107t108 46q61 0 107 -46t46 -107 t-46 -107.5t-107 -46.5t-107.5 46t-46.5 108z" />
<glyph unicode="&#x3c;" horiz-adv-x="1034" d="M51 512l912 512v-113l-707 -399l707 -399v-113z" />
<glyph unicode="=" horiz-adv-x="942" d="M72 481v92h798v-92h-798zM72 788v93h798v-93h-798z" />
<glyph unicode="&#x3e;" horiz-adv-x="1034" d="M72 0v113l706 399l-706 399v113l911 -512z" />
<glyph unicode="?" horiz-adv-x="1146" d="M31 1198q0 45 26.5 93t82 86t138 62.5t193.5 24.5q158 0 271.5 -32.5t187.5 -89t109.5 -133t35.5 -165.5q0 -170 -125 -285.5t-387 -154.5l-10 -164h-82l-10 195q57 23 104 55.5t81 80.5t52.5 114.5t18.5 158.5q0 201 -73 285t-214 84q-39 0 -68.5 -5t-52.5 -11 q-25 -8 -43 -15v-327q-14 -4 -26 -6t-25.5 -3.5t-30.5 -1.5q-70 0 -111.5 42t-41.5 112zM348 143q0 70 46 117t108 47q61 0 107 -47t46 -117t-46 -116.5t-107 -46.5t-107.5 47t-46.5 116z" />
<glyph unicode="@" horiz-adv-x="1720" d="M82 594q0 168 61.5 314.5t167 254t246.5 169t303 61.5t303.5 -61.5t247 -169t166.5 -254t61 -314.5q0 -104 -28.5 -185t-75.5 -138.5t-107.5 -87t-126.5 -29.5q-117 0 -181 25.5t-97 56.5q-37 37 -49 81q-14 -45 -43 -81q-25 -31 -69 -56.5t-113 -25.5q-74 0 -135.5 25.5 t-106.5 74.5t-70.5 119.5t-25.5 158.5q0 231 133 361.5t389 130.5h297v-666q0 -78 32.5 -115.5t79.5 -37.5q35 0 74 24.5t73 73.5t56.5 122t22.5 169q0 158 -55.5 293t-151.5 233.5t-225 154.5t-275 56q-145 0 -274 -56t-225.5 -154.5t-151.5 -233.5t-55 -293t55 -293 t151.5 -233.5t225.5 -154.5t274 -56q86 0 155.5 19.5t123.5 41.5q61 27 110 62l31 -52q-53 -39 -119 -67q-55 -25 -132 -45.5t-169 -20.5q-162 0 -303 61.5t-246.5 169t-167 253t-61.5 315.5zM707 532q0 -88 10 -147t27.5 -94t40 -50.5t44.5 -15.5q27 0 46.5 19.5t31.5 42.5 q14 27 25 61v625q-47 0 -88 -21.5t-72 -72t-48 -135.5t-17 -212z" />
<glyph unicode="A" horiz-adv-x="1392" d="M-41 0v31l164 61l563 1362h62l583 -1393l103 -30v-31h-246q-115 0 -180.5 52t-94.5 122l-104 246h-490l-135 -328l154 -61v-31h-379zM340 471h448l-225 539z" />
<glyph unicode="B" horiz-adv-x="1392" d="M102 0v31l123 30v1311l-123 31v31h553q166 0 281 -29t186.5 -78t104.5 -113.5t33 -138.5q0 -59 -19.5 -105t-51.5 -80t-72 -56.5t-83 -36.5q-98 -35 -225 -39v-10q145 -6 260 -46q49 -16 96 -42.5t84 -64.5t59.5 -88t22.5 -118q0 -84 -32.5 -155.5t-107.5 -124t-197 -81 t-298 -28.5h-594zM563 51h133q123 0 205 88t82 250t-82 250t-205 88h-133v-676zM563 778h92q49 0 96.5 21.5t82 61.5t56 94.5t21.5 119.5q0 70 -21.5 126t-56 96t-81.5 62.5t-97 22.5h-92v-604z" />
<glyph unicode="C" horiz-adv-x="1331" d="M92 717q0 180 47 319.5t133 234.5t205 144t262 49q72 0 132.5 -21.5t103.5 -45.5q51 -29 90 -66q16 27 35.5 48.5t36.5 35.5q20 16 41 29h51v-389h-82q-29 98 -80 178q-43 68 -114.5 124t-174.5 56q-61 0 -120.5 -33.5t-105.5 -114.5t-73.5 -215.5t-27.5 -332.5 q0 -201 28.5 -334t79.5 -214t121 -115t149 -34q74 0 141.5 32t121 86.5t85 124t31.5 147.5h52q0 -88 -36 -168t-99.5 -140.5t-149.5 -96.5t-187 -36q-162 0 -290.5 49.5t-219 144.5t-138.5 234.5t-48 319.5z" />
<glyph unicode="D" horiz-adv-x="1464" d="M102 0v31l123 30v1311l-123 31v31h523q369 0 563 -189.5t194 -527.5t-194.5 -527.5t-562.5 -189.5h-523zM563 51h62q88 0 161.5 34t126 111.5t82 204.5t29.5 316q0 188 -29.5 315t-82 205t-126 111.5t-161.5 33.5h-62v-1331z" />
<glyph unicode="E" horiz-adv-x="1320" d="M102 0v31l123 30v1311l-123 31v31h1096v-369h-61q-39 31 -68 78q-25 41 -45 99t-20 140h-441v-645h236q8 41 22.5 79t30.5 67q18 33 39 59h61v-461h-61q-20 27 -39 60q-16 29 -30.5 65.5t-22.5 79.5h-236v-635h481q0 80 20.5 139.5t45.5 100.5q29 47 68 78h61v-369h-1137 z" />
<glyph unicode="F" horiz-adv-x="1249" d="M102 0v31l123 30v1311l-123 31v31h1096v-369h-61q-39 31 -68 78q-25 41 -45 99t-20 140h-441v-645h236q8 41 22.5 79t30.5 67q18 33 39 59h61v-461h-61q-20 27 -39 60q-16 29 -30.5 65.5t-22.5 79.5h-236v-625l123 -30v-31h-584z" />
<glyph unicode="G" horiz-adv-x="1433" d="M92 717q0 180 47 319.5t133 234.5t205 144t262 49q72 0 132.5 -21.5t103.5 -45.5q51 -29 90 -66q16 27 35.5 48.5t36.5 35.5q20 16 41 29h51v-389h-82q-29 98 -80 178q-43 68 -114.5 124t-174.5 56q-61 0 -120.5 -33.5t-105.5 -114.5t-73.5 -215.5t-27.5 -332.5 q0 -201 24.5 -331t66.5 -207t95.5 -107.5t110.5 -30.5q47 0 80.5 25.5t56.5 56.5q27 37 47 82v471l-123 31v30h584v-30l-123 -31v-686h-31q-90 0 -144.5 25.5t-82.5 56.5q-35 37 -49 82q-27 -53 -68 -93q-35 -35 -92.5 -63.5t-136.5 -28.5q-115 0 -219.5 49.5t-183.5 144.5 t-125 234.5t-46 319.5z" />
<glyph unicode="H" horiz-adv-x="1566" d="M102 0v31l123 30v1311l-123 31v31h584v-31l-123 -31v-635h441v635l-123 31v31h583v-31l-123 -31v-1311l123 -30v-31h-583v31l123 30v625h-441v-625l123 -30v-31h-584z" />
<glyph unicode="I" horiz-adv-x="788" d="M102 0v31l123 30v1311l-123 31v31h584v-31l-123 -31v-1311l123 -30v-31h-584z" />
<glyph unicode="J" horiz-adv-x="1126" d="M0 195q0 70 42 111.5t112 41.5q16 0 29.5 -2t25.5 -4t27 -4v-307q12 -6 28 -11q31 -10 74 -10q53 0 98 20.5t78 67.5t51.5 124t18.5 188v962l-123 31v31h583v-31l-122 -31v-962q0 -207 -129 -324t-414 -117q-100 0 -172 19.5t-118 51.5t-67.5 72t-21.5 83z" />
<glyph unicode="K" horiz-adv-x="1413" d="M102 0v31l123 30v1311l-123 31v31h584v-31l-123 -31v-643l502 612l-154 62v31h389v-31l-163 -62l-359 -440l553 -840l103 -30v-31h-287q-100 0 -164.5 52t-112.5 122l-307 471v-584l123 -30v-31h-584z" />
<glyph unicode="L" horiz-adv-x="1249" d="M102 0v31l123 30v1311l-123 31v31h584v-31l-123 -31v-1321h441q0 80 20 139.5t45 100.5q29 47 68 78h61v-369h-1096z" />
<glyph unicode="M" horiz-adv-x="2017" d="M61 0v31l164 61v1280l-123 31v31h256q57 0 100.5 -13.5t76 -36t56 -54.5t44.5 -70l446 -854l342 854q16 43 38 74.5t52.5 54t75.5 34t111 11.5h215v-31l-123 -31v-1311l123 -30v-31h-584v31l123 30v1117l-481 -1198h-62l-624 1198v-1086l164 -61v-31h-390z" />
<glyph unicode="N" horiz-adv-x="1515" d="M61 0v31l164 61v1270l-143 41v31h215q61 0 106.5 -13.5t79 -35t58 -47t43.5 -48.5l655 -768v819l-164 62v31h389v-31l-164 -62v-1372h-61l-952 1116v-993l164 -61v-31h-390z" />
<glyph unicode="O" horiz-adv-x="1515" d="M92 717q0 180 48 319.5t135 234.5t210 144t273 49t272.5 -49t209.5 -144t135 -234.5t48 -319.5t-48 -319.5t-135 -234.5t-210 -144.5t-272 -49.5q-150 0 -273 49.5t-210 144.5t-135 234.5t-48 319.5zM451 717q0 -203 27.5 -339t71.5 -218t99.5 -116t108.5 -34t108.5 34 t99.5 116t71.5 218t27.5 339t-27.5 339t-71.5 218t-99.5 115.5t-108.5 33.5t-108.5 -33.5t-99.5 -115.5t-71.5 -218t-27.5 -339z" />
<glyph unicode="P" horiz-adv-x="1382" d="M102 0v31l123 30v1311l-123 31v31h574q176 0 298 -30t196.5 -87t107.5 -138t33 -186q0 -104 -33 -185t-107.5 -138.5t-196.5 -87t-298 -29.5h-113v-492l123 -30v-31h-584zM563 604h113q61 0 113.5 23.5t91.5 72t60.5 121t21.5 172.5q0 199 -82 294t-205 95h-113v-778z " />
<glyph unicode="Q" horiz-adv-x="1515" d="M92 717q0 180 48 319.5t135 234.5t210 144t273 49t272.5 -49t209.5 -144t135 -234.5t48 -319.5q0 -309 -135 -494.5t-366 -232.5q0 -84 9 -138.5t23.5 -85t33 -42t36.5 -11.5q29 0 45 11q8 4 16 10l21 -51q-12 -8 -33 -17q-39 -14 -110 -14q-84 0 -153 25.5t-117 70.5 t-73.5 106.5t-25.5 135.5q-231 47 -366.5 232.5t-135.5 494.5zM451 717q0 -203 27.5 -339t71.5 -218t99.5 -116t108.5 -34t108.5 34t99.5 116t71.5 218t27.5 339t-27.5 339t-71.5 218t-99.5 115.5t-108.5 33.5t-108.5 -33.5t-99.5 -115.5t-71.5 -218t-27.5 -339z" />
<glyph unicode="R" horiz-adv-x="1433" d="M102 0v31l123 30v1311l-123 31v31h543q184 0 309 -30t202 -82t110.5 -126t33.5 -162q0 -70 -20 -122t-54 -92t-78 -66.5t-89 -42.5q-106 -41 -240 -45v-11q70 -2 133 -22q53 -16 108.5 -54t86.5 -108l184 -410l103 -30v-31h-287q-92 0 -151.5 48t-94.5 126l-205 461h-133 v-574l144 -30v-31h-605zM563 686h82q139 0 223 89t84 259t-84 259t-223 89h-82v-696z" />
<glyph unicode="S" horiz-adv-x="1218" d="M72 -10v389h82q31 -100 86 -180q25 -35 55.5 -67t70.5 -56.5t89 -40t108 -15.5q117 0 186.5 70t69.5 186q0 80 -54 138.5t-134 109.5t-175.5 102.5t-175 117t-134 152.5t-54.5 210q0 74 31 138.5t93.5 113.5t156.5 77.5t221 28.5q72 0 133 -21.5t104 -45.5q51 -29 91 -66 q16 27 35.5 48.5t35.5 35.5q20 16 41 29h51v-389h-81q-29 98 -80 178q-43 68 -115 124t-174 56q-39 0 -74 -16.5t-61.5 -46t-43 -71.5t-16.5 -91q0 -88 54.5 -150.5t134.5 -116t175 -104.5t175 -113.5t134 -142.5t54 -192q0 -80 -34.5 -153t-104.5 -128t-176.5 -87 t-247.5 -32q-90 0 -157.5 20.5t-114.5 45.5q-55 29 -96 67q-16 -29 -36 -49t-36 -35q-20 -16 -41 -28h-51z" />
<glyph unicode="T" horiz-adv-x="1300" d="M51 1065v369h1198v-369h-61q-39 31 -68 78q-25 41 -45 99t-20 140h-236v-1321l123 -30v-31h-584v31l123 30v1321h-235q0 -82 -21.5 -140t-46.5 -99q-29 -47 -65 -78h-62z" />
<glyph unicode="U" horiz-adv-x="1454" d="M72 1403v31h583v-31l-123 -31v-860q0 -139 23 -232.5t63.5 -151.5t99 -83t132.5 -25q70 0 135.5 34t117.5 97.5t84 154.5t32 206v829l-164 62v31h389v-31l-164 -62v-829q0 -127 -36 -227.5t-99.5 -171t-149.5 -107.5t-186 -37q-307 0 -460.5 144.5t-153.5 398.5v860z" />
<glyph unicode="V" horiz-adv-x="1361" d="M-41 1403v31h246q115 0 180.5 -52.5t95.5 -121.5l363 -826l334 907l-154 62v31h379v-31l-164 -62l-502 -1361h-61l-615 1392z" />
<glyph unicode="W" horiz-adv-x="2017" d="M-41 1403v31h246q117 0 183.5 -52.5t92.5 -121.5l310 -789l180 528l-152 383l-112 21v31h245q117 0 182.5 -52.5t94.5 -121.5l309 -789l295 870l-154 62v31h379v-31l-164 -62l-460 -1361h-62l-368 935l-318 -935h-61l-553 1402z" />
<glyph unicode="X" horiz-adv-x="1361" d="M-10 1403v31h297q109 0 169 -48.5t107 -125.5l197 -336l284 417l-153 62v31h389v-31l-164 -62l-321 -473l475 -807l102 -30v-31h-297q-109 0 -169 48t-107 126l-221 375l-312 -457l154 -61v-31h-389v31l164 61l348 514l-451 766z" />
<glyph unicode="Y" horiz-adv-x="1361" d="M0 1403v31h256q57 0 100 -13.5t76 -36t57.5 -54.5t42.5 -70l304 -605l311 686l-154 62v31h389v-31l-163 -62l-359 -788v-492l123 -30v-31h-584v31l123 30v471l-420 840z" />
<glyph unicode="Z" horiz-adv-x="1300" d="M82 0v51l760 1331h-535q0 -82 -21.5 -140t-45.5 -99q-29 -47 -66 -78h-61v369h1106v-52l-758 -1331h553q0 80 20.5 139.5t44.5 100.5q29 47 68 78h61v-369h-1126z" />
<glyph unicode="[" horiz-adv-x="716" d="M174 -451v1926h522v-52h-194v-1822h194v-52h-522z" />
<glyph unicode="\" horiz-adv-x="716" d="M-41 1536h92l707 -1638h-92z" />
<glyph unicode="]" horiz-adv-x="716" d="M20 -399h195v1822h-195v52h523v-1926h-523v52z" />
<glyph unicode="^" horiz-adv-x="983" d="M61 881l431 594l430 -594h-123l-307 419l-308 -419h-123z" />
<glyph unicode="_" horiz-adv-x="798" d="M0 -113h799v-92h-799v92z" />
<glyph unicode="`" horiz-adv-x="450" d="M41 1434h266l82 -308h-72z" />
<glyph unicode="a" horiz-adv-x="1239" d="M102 246q0 47 10.5 87t24.5 70q16 37 37 68q86 20 182 37q82 14 184.5 27.5t207.5 17.5v61q0 119 -15.5 197t-44.5 123t-71 62.5t-95 17.5q-23 0 -41 -3t-32 -7q-16 -6 -29 -11v-307q-14 -4 -27 -6q-12 -2 -25.5 -3t-29.5 -1q-70 0 -112 42t-42 111q0 43 21.5 83t67.5 72 t118 51.5t172 19.5q123 0 218.5 -33t161 -91.5t99 -139t33.5 -177.5v-553l123 -30v-31h-184q-74 0 -119 23.5t-72 52.5q-31 35 -45 78q-27 -53 -67 -93q-35 -35 -92.5 -63.5t-137.5 -28.5q-96 0 -166.5 21.5t-117.5 59.5t-71 88t-24 108zM440 266q0 -123 38 -174t85 -51 t81 25.5t56 56.5q27 37 48 82v297q-47 0 -94.5 -3t-86.5 -7q-45 -7 -86 -11q-12 -27 -20 -61q-8 -29 -14.5 -68t-6.5 -86z" />
<glyph unicode="b" horiz-adv-x="1259" d="M41 1403v31h266q184 0 185 -185v-276q27 23 63 41q31 16 75 28.5t97 12.5q100 0 183 -35t142.5 -102.5t92.5 -169t33 -236.5t-33 -236.5t-89.5 -169t-133 -102.5t-164.5 -35q-82 0 -138.5 29t-91.5 63q-41 39 -67 93q-14 -45 -49 -82q-29 -31 -84.5 -56.5t-143.5 -25.5 h-20v1382zM492 205q18 -45 45 -82q23 -31 57.5 -56.5t81.5 -25.5q27 0 54.5 18.5t49 70.5t35.5 144.5t14 237.5q0 150 -14 244t-38.5 146t-58.5 71.5t-73 19.5q-31 0 -58.5 -12t-49.5 -29q-25 -18 -45 -41v-706z" />
<glyph unicode="c" d="M82 512q0 254 145.5 398.5t407.5 144.5q100 0 172 -19.5t118 -51.5t67.5 -72t21.5 -83q0 -70 -42 -111.5t-112 -41.5q-16 0 -31.5 1t-25.5 3q-14 2 -25 6v307q-12 4 -28 11q-14 4 -32.5 7t-41.5 3q-53 0 -98.5 -22.5t-78 -79t-51 -153.5t-18.5 -247q0 -145 18.5 -240.5 t51 -150.5t78 -78t98.5 -23q61 0 115.5 23t94.5 60.5t63.5 86t23.5 97.5h51q0 -61 -27.5 -118.5t-79 -101.5t-123 -71t-159.5 -27q-262 0 -407.5 144.5t-145.5 398.5z" />
<glyph unicode="d" horiz-adv-x="1269" d="M82 512q0 135 32.5 236.5t92 169t142.5 102.5t183 35q53 0 97.5 -12.5t75.5 -28.5q37 -18 63 -41v399l-123 31v31h266q184 0 185 -185v-1188l123 -30v-31h-185q-74 0 -119 23.5t-71 52.5q-31 35 -45 78q-27 -53 -68 -93q-35 -35 -92 -63.5t-137 -28.5q-88 0 -165 35 t-133.5 102.5t-89 169t-32.5 236.5zM430 512q0 -145 14.5 -237.5t36 -144.5t49 -70.5t54.5 -18.5q47 0 80.5 25.5t56.5 56.5q27 37 47 82v706q-23 23 -47 41q-23 16 -49.5 28.5t-57.5 12.5q-39 0 -72.5 -19.5t-58 -71.5t-39 -146t-14.5 -244z" />
<glyph unicode="e" horiz-adv-x="1146" d="M82 512q0 127 37 227.5t102.5 171t158.5 107.5t204 37q115 0 206 -33t154.5 -88t97 -130t33.5 -159q0 -29 -3 -50.5t-7 -37.5q-6 -20 -10 -35q-90 -18 -191 -30q-86 -12 -198.5 -21.5t-235.5 -9.5q0 -127 18.5 -212t51 -135.5t78 -72t98.5 -21.5q61 0 115.5 23t94.5 60.5 t63.5 86t23.5 97.5h51q0 -61 -27.5 -118.5t-79 -101.5t-123 -71t-159.5 -27q-262 0 -407.5 144.5t-145.5 398.5zM430 512q70 0 123 3t90 7q43 4 74 10q4 20 10 46q4 23 7 50t3 58q0 92 -14 154.5t-35.5 101.5t-49.5 55.5t-54 16.5q-27 0 -54.5 -19.5t-49 -74t-36 -152.5 t-14.5 -256z" />
<glyph unicode="f" horiz-adv-x="870" d="M51 932v51h144v102q0 80 29.5 150t85 121t135 79.5t180.5 28.5q84 0 147.5 -19.5t105.5 -51t63.5 -71.5t21.5 -83q0 -70 -42 -112t-112 -42q-16 0 -31.5 1t-25.5 4q-14 2 -25 6v317q-8 2 -18 4t-21.5 4t-21.5 2q-31 0 -57.5 -14t-45 -51t-30 -102.5t-11.5 -170.5v-102 h328v-51h-328v-871l123 -30v-31h-573v31l123 30v871h-144z" />
<glyph unicode="g" horiz-adv-x="1239" d="M51 -215q0 70 42 112t112 42q18 0 33.5 -2.5t25.5 -4.5q12 -2 23 -4v-286q37 -12 78 -21q35 -8 81 -14t97 -6q135 0 226 21.5t148.5 55t82 77.5t24.5 91q0 27 -12.5 51.5t-41 43t-75.5 29t-117 10.5h-389q-162 0 -239.5 66.5t-77.5 158.5q0 61 29.5 103t66.5 71 q43 31 98 51q-78 47 -110.5 113.5t-32.5 152.5q0 74 27.5 135.5t83 106.5t140 70.5t199.5 25.5q100 0 180.5 -20.5t127.5 -50.5q16 35 43 61q23 23 60.5 42t90.5 19q70 0 117 -48t47 -126q0 -61 -32.5 -97t-80.5 -36q-16 0 -28.5 1t-22.5 3t-20 6v246q-35 0 -59.5 -16.5 t-41.5 -34.5q-20 -23 -32 -51q53 -47 77.5 -106.5t24.5 -129.5q0 -74 -27.5 -135t-83 -106t-140.5 -71t-200 -26q-78 0 -145.5 14.5t-120.5 37.5q-23 -10 -41 -21q-16 -10 -28.5 -22.5t-12.5 -28.5q0 -31 32 -51.5t132 -20.5h389q154 0 241 -88t87 -250q0 -78 -32 -144.5 t-97.5 -116.5t-168.5 -78.5t-245 -28.5q-145 0 -243.5 20.5t-158 53t-85 72.5t-25.5 79zM430 696q0 -88 11.5 -145t29.5 -91t44.5 -47.5t57.5 -13.5t57.5 13.5t45 47.5t30 91t11.5 145t-11.5 145.5t-30 91.5t-45 47t-57.5 13t-57.5 -13t-44.5 -47t-29.5 -91.5t-11.5 -145.5z " />
<glyph unicode="h" horiz-adv-x="1361" d="M82 0v31l123 30v1311l-123 31v31h266q184 0 184 -185v-327q27 37 64 65q33 25 83 46.5t120 21.5q88 0 161.5 -29t126 -76t82 -107.5t29.5 -125.5v-656l123 -30v-31h-266q-184 0 -185 184v533q0 70 -14 120t-35.5 82.5t-49.5 48t-54 15.5q-47 0 -82 -25.5t-57 -56.5 q-27 -37 -46 -82v-758l123 -30v-31h-573z" />
<glyph unicode="i" horiz-adv-x="696" d="M82 0v31l123 30v902l-123 30v31h266q184 0 184 -184v-779l123 -30v-31h-573zM195 1280q0 35 14 66.5t37.5 55t55.5 38t67 14.5t66.5 -14.5t55 -38t38 -55t14.5 -66.5t-14.5 -66.5t-38 -55t-55.5 -38t-66 -14.5q-35 0 -67 14.5t-55.5 38t-37.5 55t-14 66.5z" />
<glyph unicode="j" horiz-adv-x="675" d="M-225 -246q0 70 42 112t111 42q16 0 29.5 -2t26.5 -4q12 -2 26 -4v-287q4 -4 13 -6q16 -4 28 -4q27 0 52.5 15t46 53t33 103.5t12.5 166.5v1024l-123 30v31h266q184 0 184 -184v-901q0 -80 -29.5 -150t-88 -121t-142.5 -79.5t-190 -28.5q-162 0 -229.5 54t-67.5 140z M184 1280q0 35 14.5 66.5t38 55t55.5 38t66 14.5q35 0 67 -14.5t55.5 -38t37.5 -55t14 -66.5t-14 -66.5t-37.5 -55t-55.5 -38t-67 -14.5t-66.5 14.5t-55 38t-38 55t-14.5 66.5z" />
<glyph unicode="k" horiz-adv-x="1228" d="M82 0v31l123 30v1311l-123 31v31h266q184 0 184 -185v-717l379 400l-153 61v31h389v-31l-164 -61l-235 -246l399 -625l102 -30v-31h-266q-53 0 -94 12.5t-74 36t-58.5 55t-49.5 70.5l-175 277v-390l123 -30v-31h-573z" />
<glyph unicode="l" horiz-adv-x="696" d="M82 0v31l123 30v1311l-123 31v31h266q184 0 184 -185v-1188l123 -30v-31h-573z" />
<glyph unicode="m" horiz-adv-x="1945" d="M82 0v31l123 30v902l-123 30v31h184q72 0 118 -24.5t73 -53.5q31 -35 45 -76q27 51 65 93q35 35 86.5 63.5t124.5 28.5q123 0 212 -54.5t136 -140.5q27 53 66 96q35 37 86 68t125 31q84 0 153.5 -27t119.5 -73t78 -107.5t28 -130.5v-656l123 -30v-31h-267 q-184 0 -184 184v533q0 74 -12 124t-31.5 81.5t-43.5 46t-46 14.5q-39 0 -68.5 -25.5t-52.5 -56.5q-25 -37 -43 -82v-758l123 -30v-31h-573v31l122 30v656q0 74 -12 124t-31.5 81.5t-43 46t-46.5 14.5q-39 0 -68.5 -25.5t-52.5 -56.5q-25 -37 -43 -82v-758l123 -30v-31h-573 z" />
<glyph unicode="n" horiz-adv-x="1361" d="M82 0v31l123 30v902l-123 30v31h184q72 0 118 -24.5t73 -53.5q31 -35 45 -76q27 51 67 93q35 35 91.5 63.5t138.5 28.5q88 0 161.5 -29t126 -76t82 -107.5t29.5 -125.5v-656l123 -30v-31h-266q-184 0 -185 184v533q0 70 -14 120t-35.5 82.5t-49.5 48t-54 15.5 q-47 0 -82 -25.5t-57 -56.5q-27 -37 -46 -82v-758l123 -30v-31h-573z" />
<glyph unicode="o" horiz-adv-x="1249" d="M82 512q0 127 37 227.5t107.5 171t171 107.5t227.5 37t227 -37t171 -107.5t107.5 -171t36.5 -227.5t-36.5 -227.5t-107.5 -171t-171 -107.5t-227 -37t-227.5 37t-171 107.5t-107.5 171t-37 227.5zM430 512q0 -150 17.5 -247t45 -153.5t62.5 -79t70 -22.5t69.5 22.5t62 79 t45 153.5t17.5 247t-17.5 247t-45 153.5t-62.5 79t-69 22.5q-35 0 -70 -22.5t-62.5 -79t-45 -153.5t-17.5 -247z" />
<glyph unicode="p" horiz-adv-x="1280" d="M61 -379l123 31v1311l-123 30v31h185q72 0 118 -24.5t72 -53.5q31 -35 45 -76q27 51 68 93q35 35 91 63.5t138 28.5q88 0 165 -35t133.5 -102.5t89 -169t32.5 -236.5t-32.5 -236.5t-92 -169t-142.5 -102.5t-183 -35q-53 0 -97.5 12.5t-75.5 28.5q-37 18 -63 41v-399 l123 -31v-31h-574v31zM512 113q20 -23 45 -41q23 -16 50.5 -28.5t58.5 -12.5q39 0 72.5 19.5t58 71.5t39 146t14.5 244q0 145 -14.5 237.5t-36 144.5t-49 70.5t-54.5 18.5q-47 0 -81.5 -25.5t-57.5 -56.5q-27 -37 -45 -82v-706z" />
<glyph unicode="q" horiz-adv-x="1259" d="M82 512q0 135 32.5 236.5t89 169t133.5 102.5t165 35q80 0 137 -29t92 -63q41 -41 68 -93q14 45 49 82q29 31 83 56.5t144 25.5h21v-1382l123 -31v-31h-574v31l123 31v399q-27 -23 -63 -41q-31 -16 -75 -28.5t-98 -12.5q-100 0 -183 35t-142.5 102.5t-92 169t-32.5 236.5 zM430 512q0 -150 14.5 -244t39 -146t58 -71.5t72.5 -19.5q31 0 57.5 12t49.5 29q25 18 47 41v706q-20 45 -47 82q-23 31 -56.5 56.5t-80.5 25.5q-27 0 -54.5 -18.5t-49 -70.5t-36 -144.5t-14.5 -237.5z" />
<glyph unicode="r" horiz-adv-x="1034" d="M82 0v31l123 30v902l-123 30v31h184q72 0 118 -24.5t73 -53.5q31 -35 45 -76q31 45 76 82q39 31 95 56.5t134 25.5q111 0 164 -51t53 -143q0 -70 -42 -112t-112 -42q-16 0 -31.5 1t-25.5 3q-14 2 -25 6v287q-61 0 -109 -25.5t-81 -56.5q-37 -37 -66 -82v-758l123 -30v-31 h-573z" />
<glyph unicode="s" horiz-adv-x="1105" d="M92 -10v348h82q29 -90 78 -160q41 -59 106.5 -108.5t163.5 -49.5q86 0 130 43t44 121q0 57 -44 98.5t-109.5 78t-143 74.5t-143.5 85t-110 108.5t-44 149.5q0 57 24 107.5t76 88.5t134 59.5t196 21.5q61 0 112.5 -17.5t88.5 -40.5q43 -25 78 -55q16 23 35.5 40t36.5 30 q20 12 41 22h51v-348h-82q-31 88 -76 158q-39 59 -98.5 109.5t-145.5 50.5q-53 0 -93 -41t-40 -103q0 -61 44 -106t109.5 -84t143.5 -76t143.5 -83t109.5 -104.5t44 -140.5q0 -66 -24.5 -120t-80 -94t-145.5 -61.5t-221 -21.5q-74 0 -130 16.5t-97 39.5q-47 25 -80 57 q-16 -23 -35.5 -41t-36.5 -29q-20 -14 -41 -22h-51z" />
<glyph unicode="t" horiz-adv-x="921" d="M31 973v51h143v102q0 184 184 185h144v-287h286v-51h-286v-625q0 -100 11 -163.5t30.5 -100.5t48.5 -50.5t63 -13.5q35 0 68 17.5t59.5 51.5t42 83t15.5 115h51q0 -154 -77 -236t-200 -82q-104 0 -185 29t-138.5 80t-87 120.5t-29.5 149.5v625h-143z" />
<glyph unicode="u" horiz-adv-x="1331" d="M51 993v31h266q184 0 185 -184v-533q0 -70 14 -120t35.5 -82.5t49.5 -48t54 -15.5q47 0 81 25.5t57 56.5q27 37 47 82v758l-123 30v31h573v-31l-123 -30v-973h-20q-90 0 -144.5 25.5t-82.5 56.5q-35 37 -50 82q-27 -53 -67 -93q-35 -35 -92.5 -63.5t-137.5 -28.5 q-88 0 -161.5 29t-126 76t-82 107.5t-29.5 125.5v656z" />
<glyph unicode="v" horiz-adv-x="1146" d="M-41 993v31h256q57 0 100 -13.5t76 -36t56.5 -54t44.5 -70.5l243 -473l228 555l-154 61v31h379v-31l-164 -61l-389 -952h-62l-512 983z" />
<glyph unicode="w" horiz-adv-x="1710" d="M-41 993v31h236q115 0 177 -49t99 -125l225 -471l117 299l-137 285l-103 30v31h236q115 0 177.5 -49t98.5 -125l226 -471l215 553l-154 61v31h379v-31l-164 -61l-379 -952h-61l-303 630l-250 -630h-62l-471 983z" />
<glyph unicode="x" horiz-adv-x="1136" d="M-10 993v31h276q53 0 94 -13.5t73 -36t58.5 -54t51.5 -70.5l104 -166l193 248l-154 61v31h389v-31l-164 -61l-233 -297l366 -574l103 -30v-31h-277q-53 0 -94 12.5t-73.5 36t-58.5 55t-50 70.5l-123 193l-215 -275l154 -61v-31h-390v31l164 61l254 326l-346 545z" />
<glyph unicode="y" horiz-adv-x="1146" d="M-41 993v31h256q57 0 100 -13.5t75 -36t56.5 -54t45.5 -70.5l256 -473l215 555l-154 61v31h379v-31l-164 -61l-410 -1055q-66 -170 -140.5 -243.5t-166.5 -73.5t-143 49t-51 135q0 78 42 121t111 43q16 0 29.5 -2t26.5 -4q12 -2 26 -4v-277q27 4 52.5 18.5t50 44t49 76.5 t53.5 117l41 103l-533 983z" />
<glyph unicode="z" horiz-adv-x="1116" d="M82 0v51l584 922h-369q0 -74 -21.5 -130.5t-46.5 -97.5q-29 -47 -65 -79h-62v358h932v-51l-583 -922h389q0 72 20.5 129.5t44.5 98.5q29 47 68 79h61v-358h-952z" />
<glyph unicode="{" horiz-adv-x="757" d="M61 481v62q70 0 112 48t42 157v419q0 61 26.5 116.5t77 98.5t125 68t170.5 25h123v-52h-20q-78 0 -126 -53t-48 -162v-379q0 -115 -51.5 -179t-112.5 -95q-72 -37 -164 -43q92 -6 164 -43q61 -31 112.5 -95.5t51.5 -178.5v-379q0 -109 48 -162t126 -53h20v-52h-123 q-96 0 -170.5 25t-125 68t-77 98t-26.5 117v419q0 109 -42 157t-112 48z" />
<glyph unicode="|" horiz-adv-x="460" d="M174 -410v1844h113v-1844h-113z" />
<glyph unicode="}" horiz-adv-x="757" d="M20 -399h21q78 0 126 53t48 162v379q0 115 51 179t113 95q72 37 164 43q-92 6 -164 43q-61 31 -112.5 95.5t-51.5 178.5v379q0 109 -48 162t-126 53h-21v52h123q96 0 171 -25t125 -68t77 -98t27 -117v-419q0 -109 42 -157t111 -48v-62q-70 0 -111.5 -48t-41.5 -157v-419 q0 -61 -27 -116.5t-77 -98.5t-124.5 -68t-171.5 -25h-123v52z" />
<glyph unicode="~" horiz-adv-x="1054" d="M61 481q0 201 77 290t200 89q74 0 128 -23.5t103 -53t98.5 -53t110.5 -23.5q70 0 117 46t47 107h51q0 -201 -75.5 -290t-200.5 -89q-74 0 -127 23.5t-101.5 53.5t-97.5 53.5t-115 23.5q-70 0 -116.5 -46t-46.5 -108h-52z" />
<glyph unicode="&#xa2;" d="M82 512q0 248 139 392.5t393 150.5v133h62v-135q88 -4 151.5 -24.5t105.5 -51.5t61.5 -70t19.5 -78q0 -70 -42 -111.5t-112 -41.5q-16 0 -31.5 1t-25.5 3q-14 2 -25 6v307q-12 4 -28 11q-14 4 -33 7t-41 3v-994q61 0 115.5 23t94.5 60.5t63.5 86t23.5 97.5h51 q0 -59 -24.5 -113.5t-70.5 -97.5t-109.5 -71t-143.5 -34v-135h-62v133q-256 6 -394 149.5t-138 393.5zM430 512q0 -125 13.5 -212t38 -143.5t58 -87t74.5 -42.5v979q-41 -10 -74.5 -41t-58 -89.5t-38 -147.5t-13.5 -216z" />
<glyph unicode="&#xa3;" horiz-adv-x="1228" d="M72 0v49q31 4 57.5 19.5t46 49.5t32.5 90t17 140l17 369h-150v61h152l12 266q10 193 129 306.5t342 113.5q100 0 169 -19.5t111 -50t60 -70.5t18 -83q0 -70 -42 -112t-111 -42q-16 0 -31.5 1.5t-26.5 3.5q-14 2 -24 6v307q-8 4 -19 8q-10 4 -25 7t-38 3q-35 0 -64.5 -16 t-52 -58t-37 -116t-20.5 -189l-12 -266h360v-61h-362l-17 -369q-4 -82 -34.5 -128t-65.5 -70q-41 -29 -94 -37h604q8 61 27.5 107t41.5 77q25 37 54 61h61v-358h-1085z" />
<glyph unicode="&#xa5;" horiz-adv-x="1361" d="M0 1403v31h256q57 0 100 -13.5t76 -36t57.5 -54.5t42.5 -70l304 -601l311 682l-154 62v31h389v-31l-163 -62l-324 -706h221v-62h-248l-8 -20v-102h256v-62h-256v-328l123 -30v-31h-584v31l123 30v328h-256v62h256v81l-20 41h-236v62h205l-369 737z" />
<glyph unicode="&#xa8;" horiz-adv-x="747" d="M41 1290q0 61 41 102.5t102 41.5t102.5 -41t41.5 -103q0 -61 -41 -102t-103 -41q-61 0 -102 41t-41 102zM420 1290q0 61 41 102.5t102 41.5t102.5 -41t41.5 -103q0 -61 -41 -102t-103 -41q-61 0 -102 41t-41 102z" />
<glyph unicode="&#xa9;" horiz-adv-x="1720" d="M82 717q0 168 61.5 314.5t167 254t246.5 169t303 61.5t303.5 -61.5t247 -169t166.5 -254t61 -314.5q0 -170 -61 -315.5t-166.5 -253t-247 -169t-303.5 -61.5t-303 61.5t-246.5 169t-167 253t-61.5 315.5zM154 717q0 -162 54 -297t149.5 -233.5t224.5 -152.5t278 -54 q150 0 279 54t224 152.5t149.5 233.5t54.5 297t-54.5 297t-149.5 233.5t-224 152.5t-279 54t-278.5 -54t-224 -152.5t-149.5 -233.5t-54 -297zM461 717q0 209 115.5 324.5t324.5 115.5q84 0 146.5 -17.5t102.5 -46t59.5 -65.5t19.5 -76q0 -61 -36 -97t-97 -36q-16 0 -31.5 1 t-26.5 3q-14 2 -24 6v277q-10 2 -21 4q-10 2 -22.5 4t-28.5 2q-35 0 -69.5 -20.5t-62.5 -67.5t-45 -124t-17 -187q0 -109 17 -182.5t46 -119.5t65.5 -66.5t75.5 -20.5q49 0 92 17t75 48t50.5 72t18.5 88h51q0 -53 -23.5 -103.5t-66.5 -89t-103.5 -61.5t-134.5 -23 q-217 0 -333.5 116t-116.5 325z" />
<glyph unicode="&#xab;" horiz-adv-x="901" d="M31 512l532 471l51 -51l-378 -420l378 -420l-51 -51zM399 512l389 358l52 -51l-246 -307l246 -307l-52 -51z" />
<glyph unicode="&#xad;" horiz-adv-x="962" d="M72 614v93h819v-93h-819z" />
<glyph unicode="&#xae;" horiz-adv-x="1720" d="M82 717q0 168 61.5 314.5t167 254t246.5 169t303 61.5t303.5 -61.5t247 -169t166.5 -254t61 -314.5q0 -170 -61 -315.5t-166.5 -253t-247 -169t-303.5 -61.5t-303 61.5t-246.5 169t-167 253t-61.5 315.5zM154 717q0 -162 54 -297t149.5 -233.5t224.5 -152.5t278 -54 q150 0 279 54t224 152.5t149.5 233.5t54.5 297t-54.5 297t-149.5 233.5t-224 152.5t-279 54t-278.5 -54t-224 -152.5t-149.5 -233.5t-54 -297zM430 287v30l102 21v758l-102 20v31h389q131 0 217 -18.5t138.5 -51.5t74 -78t21.5 -98q0 -78 -45 -121t-99 -63q-63 -25 -143 -31 q41 -4 78 -18q33 -12 64.5 -38t52.5 -67l102 -225l72 -21v-30h-205q-78 0 -126 37.5t-69 85.5l-112 256h-41v-328l102 -21v-30h-471zM799 707h20q82 0 123 51t41 143t-47 143.5t-117 51.5h-20v-389z" />
<glyph unicode="&#xb4;" horiz-adv-x="450" d="M61 1126l82 308h267l-277 -308h-72z" />
<glyph unicode="&#xb8;" horiz-adv-x="411" d="M41 -338q8 -6 20 -10q20 -10 54 -10q47 0 74.5 27.5t27.5 74.5t-29.5 74.5t-83.5 27.5v154h72v-102q92 0 143.5 -46.5t51.5 -107.5t-53.5 -107.5t-161.5 -46.5q-23 0 -43.5 1t-36.5 3q-18 2 -35 7v61z" />
<glyph unicode="&#xbb;" horiz-adv-x="901" d="M61 205l246 307l-246 307l52 51l389 -358l-389 -358zM287 92l379 420l-379 420l51 51l532 -471l-532 -471z" />
<glyph unicode="&#x2c6;" horiz-adv-x="675" d="M41 1126l297 338l297 -338h-72l-225 144l-225 -144h-72z" />
<glyph unicode="&#x2da;" horiz-adv-x="552" d="M61 1229q0 43 16.5 80t45.5 64.5t67.5 44t85.5 16.5q45 0 85 -16.5t69 -44t45.5 -64.5t16.5 -80t-16.5 -80t-45.5 -64.5t-68.5 -44t-85.5 -16.5q-47 0 -85.5 16.5t-67.5 44t-45.5 64.5t-16.5 80zM164 1229q0 -61 32.5 -97t79.5 -36t80 36t33 97t-32.5 97t-80.5 36 q-47 0 -79.5 -36t-32.5 -97z" />
<glyph unicode="&#x2dc;" horiz-adv-x="645" d="M41 1198q0 123 49 179.5t135 56.5q45 0 78 -16.5t60.5 -35t52 -35t55.5 -16.5q39 0 65.5 26.5t26.5 65.5h41q0 -123 -49 -179t-135 -56q-47 0 -79 16.5t-59.5 34.5t-52 34.5t-55.5 16.5q-39 0 -65.5 -26.5t-26.5 -65.5h-41z" />
<glyph unicode="&#x401;" horiz-adv-x="1320" d="M102 0v31l123 30v1311l-123 31v31h1096v-369h-61q-39 31 -68 78q-25 41 -45 99t-20 140h-441v-645h236q8 41 22.5 79t30.5 67q18 33 39 59h61v-461h-61q-20 27 -39 60q-16 29 -30.5 65.5t-22.5 79.5h-236v-635h481q0 80 20.5 139.5t45.5 100.5q29 47 68 78h61v-369h-1137 zM369 1720q0 61 41 102.5t102 41.5t102 -41t41 -103q0 -61 -41 -102t-102 -41t-102 41t-41 102zM748 1720q0 61 40.5 102.5t102.5 41.5q61 0 102 -41t41 -103q0 -61 -41 -102t-102 -41t-102 41t-41 102z" />
<glyph unicode="&#x402;" horiz-adv-x="1576" d="M51 1065v369h1055v-369h-62q-39 31 -67 78q-25 41 -45.5 99t-20.5 140h-174v-553q31 16 72 31q35 10 84 20.5t111 10.5q260 0 375.5 -98.5t115.5 -260.5v-348q0 -53 -21.5 -98t-74.5 -78t-141.5 -51t-223.5 -18v41q47 0 85 48t38 156v348q0 170 -59.5 239t-175.5 69 q-39 0 -73 -10.5t-58 -20.5q-29 -14 -54 -31v-717l123 -30v-31h-584v31l123 30v1321h-153q0 -82 -21.5 -140t-46.5 -99q-29 -47 -65 -78h-62z" />
<glyph unicode="&#x403;" horiz-adv-x="1249" d="M102 0v31l123 30v1311l-123 31v31h1096v-369h-61q-39 31 -68 78q-25 41 -45 99t-20 140h-441v-1321l123 -30v-31h-584zM102 0zM614 1544l82 308h267l-277 -308h-72z" />
<glyph unicode="&#x404;" horiz-adv-x="1331" d="M92 717q0 180 47 319.5t133 234.5t205 144t262 49q72 0 132.5 -21.5t103.5 -45.5q51 -29 90 -66q16 27 35.5 48.5t36.5 35.5q20 16 41 29h51v-389h-82q-29 98 -80 178q-43 68 -114.5 124t-174.5 56q-61 0 -120.5 -33.5t-105.5 -112.5t-73.5 -208t-27.5 -322h266 q8 41 22.5 79t30.5 67q18 33 39 59h61v-461h-61q-20 27 -39 60q-16 29 -30.5 65.5t-22.5 79.5h-266q4 -193 33.5 -320.5t78.5 -204.5t118 -109t148 -32q74 0 141.5 32t121 86.5t85 124t31.5 147.5h52q0 -88 -36 -168t-99.5 -140.5t-149.5 -96.5t-187 -36q-162 0 -290.5 49.5 t-219 144.5t-138.5 234.5t-48 319.5z" />
<glyph unicode="&#x405;" horiz-adv-x="1218" d="M72 -10v389h82q31 -100 86 -180q25 -35 55.5 -67t70.5 -56.5t89 -40t108 -15.5q117 0 186.5 70t69.5 186q0 80 -54 138.5t-134 109.5t-175.5 102.5t-175 117t-134 152.5t-54.5 210q0 74 31 138.5t93.5 113.5t156.5 77.5t221 28.5q72 0 133 -21.5t104 -45.5q51 -29 91 -66 q16 27 35.5 48.5t35.5 35.5q20 16 41 29h51v-389h-81q-29 98 -80 178q-43 68 -115 124t-174 56q-39 0 -74 -16.5t-61.5 -46t-43 -71.5t-16.5 -91q0 -88 54.5 -150.5t134.5 -116t175 -104.5t175 -113.5t134 -142.5t54 -192q0 -80 -34.5 -153t-104.5 -128t-176.5 -87 t-247.5 -32q-90 0 -157.5 20.5t-114.5 45.5q-55 29 -96 67q-16 -29 -36 -49t-36 -35q-20 -16 -41 -28h-51z" />
<glyph unicode="&#x406;" horiz-adv-x="788" d="M102 0v31l123 30v1311l-123 31v31h584v-31l-123 -31v-1311l123 -30v-31h-584z" />
<glyph unicode="&#x407;" horiz-adv-x="788" d="M61 0zM61 1728q0 61 41 102.5t102 41.5t102.5 -41t41.5 -103q0 -61 -41 -102t-103 -41q-61 0 -102 41t-41 102zM102 0v31l123 30v1311l-123 31v31h584v-31l-123 -31v-1311l123 -30v-31h-584zM440 1728q0 61 41 102.5t102 41.5t102.5 -41t41.5 -103q0 -61 -41 -102 t-103 -41q-61 0 -102 41t-41 102z" />
<glyph unicode="&#x408;" horiz-adv-x="1126" d="M0 195q0 70 42 111.5t112 41.5q16 0 29.5 -2t25.5 -4t27 -4v-307q12 -6 28 -11q31 -10 74 -10q53 0 98 20.5t78 67.5t51.5 124t18.5 188v962l-123 31v31h583v-31l-122 -31v-962q0 -207 -129 -324t-414 -117q-100 0 -172 19.5t-118 51.5t-67.5 72t-21.5 83z" />
<glyph unicode="&#x409;" horiz-adv-x="2048" d="M-20 154q0 78 47 126t116 48q16 0 29.5 -2t26.5 -4q12 -2 26 -5v-286q27 8 54.5 30.5t52 75.5t43 143.5t24.5 231.5l41 850l-143 41v31h1055v-31l-123 -31v-512h133q176 0 298 -29.5t196.5 -85t107.5 -135.5t33 -180t-33 -180t-107.5 -135.5t-196.5 -85t-298 -29.5h-594 v31l123 30v1321h-389l-41 -870q-8 -158 -34 -262.5t-62.5 -167t-84 -88t-96.5 -25.5q-92 0 -148 53.5t-56 131.5zM1229 51h133q123 0 205 93.5t82 285.5q0 193 -82 286t-205 93h-133v-758z" />
<glyph unicode="&#x40a;" horiz-adv-x="2160" d="M102 0v31l123 30v1311l-123 31v31h584v-31l-123 -31v-553h441v553l-123 31v31h583v-31l-123 -31v-553h134q176 0 297.5 -29.5t196.5 -83t107.5 -129t32.5 -167.5t-32.5 -168t-107.5 -129.5t-196.5 -83t-297.5 -29.5h-594v31l123 30v707h-441v-707l123 -30v-31h-584z M1341 51h134q123 0 204.5 90t81.5 269q0 178 -82 268t-204 90h-134v-717z" />
<glyph unicode="&#x40b;" horiz-adv-x="1648" d="M51 1065v369h1055v-369h-62q-39 31 -67 78q-25 41 -45.5 99t-20.5 140h-174v-553q31 16 72 31q35 10 84 20.5t111 10.5q260 0 375.5 -98.5t115.5 -260.5v-471l123 -30v-31h-584v31l123 30v471q0 170 -59.5 239t-175.5 69q-39 0 -73 -10.5t-58 -20.5q-29 -14 -54 -31v-717 l123 -30v-31h-584v31l123 30v1321h-153q0 -82 -21.5 -140t-46.5 -99q-29 -47 -65 -78h-62z" />
<glyph unicode="&#x40c;" horiz-adv-x="1454" d="M102 0v31l123 30v1311l-123 31v31h584v-31l-123 -31v-584h103q78 0 129 51.5t75 143.5l72 266q25 92 81 148.5t134 56.5q92 0 148.5 -53t56.5 -131t-47 -126t-117 -48q-16 0 -31.5 1t-25.5 3q-14 2 -25 6v287q-33 -8 -64.5 -45t-47.5 -99l-72 -266q-16 -61 -38 -101 t-44 -63q-25 -27 -51 -41h51q145 0 215 -52t92 -122l184 -543l103 -30v-31h-246q-115 0 -172 48t-84 126l-194 563h-185v-676l123 -30v-31h-584zM102 0zM696 1503l82 308h267l-277 -308h-72z" />
<glyph unicode="&#x40e;" horiz-adv-x="1351" d="M-20 1403v31h266q109 0 172 -52.5t104 -121.5l346 -601l299 682l-153 62v31h379v-31l-164 -62l-461 -1054q-74 -170 -147.5 -244t-159.5 -74q-92 0 -148.5 53.5t-56.5 131.5t47 126t117 48q16 0 29.5 -2t25.5 -4t27 -5v-286q47 8 99 66.5t106 189.5l-625 1085zM0 0z M420 1697q0 53 34.5 88t88.5 35q10 0 23 -2t24 -4l24 -4v-225q0 2 30 -9.5t83 -11.5t83 11.5t30 9.5v225l24 4q10 2 22.5 4t24.5 2q53 0 88 -34.5t35 -88.5q0 -70 -69.5 -122t-237.5 -52q-84 0 -142.5 14.5t-95.5 38t-53 55.5t-16 66z" />
<glyph unicode="&#x40f;" horiz-adv-x="1566" d="M102 0v31l123 30v1311l-123 31v31h584v-31l-123 -31v-1321h441v1321l-123 31v31h583v-31l-123 -31v-1311l123 -30v-31h-573q0 -78 -11.5 -139.5t-25.5 -106.5q-16 -53 -35 -92h-71q-20 39 -37 92q-14 45 -24.5 106.5t-10.5 139.5h-574z" />
<glyph unicode="&#x410;" horiz-adv-x="1392" d="M-41 0v31l164 61l563 1362h62l583 -1393l103 -30v-31h-246q-115 0 -180.5 52t-94.5 122l-104 246h-490l-135 -328l154 -61v-31h-379zM340 471h448l-225 539z" />
<glyph unicode="&#x411;" horiz-adv-x="1372" d="M102 0v31l123 30v1311l-123 31v31h1086v-369h-62q-39 31 -67 78q-25 41 -45.5 99t-20.5 140h-430v-542h113q176 0 298 -30t196.5 -84t107.5 -132t33 -174t-33 -174t-107.5 -132.5t-196.5 -84t-298 -29.5h-574zM563 51h113q123 0 205 92.5t82 276.5t-82 276t-205 92h-113 v-737z" />
<glyph unicode="&#x412;" horiz-adv-x="1392" d="M102 0v31l123 30v1311l-123 31v31h553q166 0 281 -29t186.5 -78t104.5 -113.5t33 -138.5q0 -59 -19.5 -105t-51.5 -80t-72 -56.5t-83 -36.5q-98 -35 -225 -39v-10q145 -6 260 -46q49 -16 96 -42.5t84 -64.5t59.5 -88t22.5 -118q0 -84 -32.5 -155.5t-107.5 -124t-197 -81 t-298 -28.5h-594zM563 51h133q123 0 205 88t82 250t-82 250t-205 88h-133v-676zM563 778h92q49 0 96.5 21.5t82 61.5t56 94.5t21.5 119.5q0 70 -21.5 126t-56 96t-81.5 62.5t-97 22.5h-92v-604z" />
<glyph unicode="&#x413;" horiz-adv-x="1249" d="M102 0v31l123 30v1311l-123 31v31h1096v-369h-61q-39 31 -68 78q-25 41 -45 99t-20 140h-441v-1321l123 -30v-31h-584z" />
<glyph unicode="&#x414;" horiz-adv-x="1433" d="M-20 51h163q55 41 101 107q39 55 73.5 143t40.5 211l41 850l-143 41v31h1075v-31l-123 -31v-1321h195v-399h-62q-51 37 -88 90q-33 45 -59.5 108.5t-26.5 149.5h-952q0 -86 -27.5 -149.5t-60.5 -108.5q-37 -53 -86 -90h-61v399zM215 51h655v1331h-409l-41 -870 q-6 -123 -39 -211t-70 -143q-43 -66 -96 -107z" />
<glyph unicode="&#x415;" horiz-adv-x="1320" d="M102 0v31l123 30v1311l-123 31v31h1096v-369h-61q-39 31 -68 78q-25 41 -45 99t-20 140h-441v-645h236q8 41 22.5 79t30.5 67q18 33 39 59h61v-461h-61q-20 27 -39 60q-16 29 -30.5 65.5t-22.5 79.5h-236v-635h481q0 80 20.5 139.5t45.5 100.5q29 47 68 78h61v-369h-1137 z" />
<glyph unicode="&#x416;" horiz-adv-x="2099" d="M10 0v31l103 30l184 543q23 70 92.5 122t214.5 52h49q-2 0 -16 10.5t-34.5 33t-42 62.5t-38.5 99l-71 266q-16 61 -48 98t-65 46v-287q-14 -4 -27 -6q-12 -2 -25.5 -3t-29.5 -1q-70 0 -117 48t-47 126t56.5 131t148.5 53q78 0 134 -56.5t81 -148.5l72 -266 q25 -92 76 -143.5t128 -51.5h93v584l-123 31v31h583v-31l-122 -31v-584h92q78 0 129 51.5t76 143.5l71 266q25 92 81 148.5t134 56.5q92 0 148.5 -53t56.5 -131t-47 -126t-117 -48q-16 0 -31.5 1t-25.5 3q-14 2 -25 6v287q-33 -8 -64.5 -45t-47.5 -99l-72 -266 q-16 -61 -37.5 -101t-44.5 -63q-25 -27 -51 -41h51q145 0 215 -52t92 -122l185 -543l102 -30v-31h-246q-115 0 -172 48t-84 126l-194 563h-174v-676l122 -30v-31h-583v31l123 30v676h-174l-195 -563q-27 -78 -84 -126t-172 -48h-246z" />
<glyph unicode="&#x417;" horiz-adv-x="1259" d="M51 410h51q0 -78 33 -147.5t89.5 -124t133 -86.5t164.5 -32q154 0 241 89.5t87 259.5q0 178 -82 268t-205 90h-153v51h133q109 0 177 78t68 240t-67.5 239.5t-167.5 77.5q-49 0 -91 -15.5t-77 -41t-62.5 -58t-48.5 -65.5q-51 -80 -79 -178h-82v389h51q20 -12 41 -29 q16 -14 35.5 -35.5t35.5 -48.5q39 37 91 66q41 25 99 46t128 21q135 0 236.5 -31.5t169 -84t102.5 -118t35 -134.5q0 -63 -19.5 -111.5t-51.5 -84.5t-72 -59.5t-83 -39.5q-98 -37 -225 -43v-10q143 -6 256 -48q47 -18 93 -45.5t82 -67.5t58.5 -94.5t22.5 -123.5 q0 -80 -36 -153t-112.5 -128t-197.5 -87t-289 -32q-115 0 -209 36t-161.5 96.5t-104.5 140.5t-37 168z" />
<glyph unicode="&#x418;" horiz-adv-x="1607" d="M102 0v31l123 30v1311l-123 31v31h584v-31l-123 -31v-1034l481 881v153l-122 31v31h583v-31l-123 -31v-1311l123 -30v-31h-583v31l122 30v1035l-481 -881v-154l123 -30v-31h-584z" />
<glyph unicode="&#x419;" horiz-adv-x="1607" d="M102 0v31l123 30v1311l-123 31v31h584v-31l-123 -31v-1034l481 881v153l-122 31v31h583v-31l-123 -31v-1311l123 -30v-31h-583v31l122 30v1035l-481 -881v-154l123 -30v-31h-584zM492 1751q0 53 34.5 88t87.5 35q10 0 23.5 -2t24.5 -4l24 -4v-226q0 2 30 -9t83 -11 t82.5 11t29.5 9v226q12 2 25 4q10 2 22.5 4t24.5 2q53 0 88 -35t35 -88q0 -70 -69.5 -122t-237.5 -52q-84 0 -142.5 14.5t-95.5 38t-53 55t-16 66.5z" />
<glyph unicode="&#x41a;" horiz-adv-x="1454" d="M102 0v31l123 30v1311l-123 31v31h584v-31l-123 -31v-584h103q78 0 129 51.5t75 143.5l72 266q25 92 81 148.5t134 56.5q92 0 148.5 -53t56.5 -131t-47 -126t-117 -48q-16 0 -31.5 1t-25.5 3q-14 2 -25 6v287q-33 -8 -64.5 -45t-47.5 -99l-72 -266q-16 -61 -38 -101 t-44 -63q-25 -27 -51 -41h51q145 0 215 -52t92 -122l184 -543l103 -30v-31h-246q-115 0 -172 48t-84 126l-194 563h-185v-676l123 -30v-31h-584z" />
<glyph unicode="&#x41b;" horiz-adv-x="1454" d="M-20 154q0 78 47 126t116 48q16 0 29.5 -2t26.5 -4q12 -2 26 -5v-286q27 8 54.5 30.5t52 75.5t43 143.5t24.5 231.5l41 850l-143 41v31h1055v-31l-123 -31v-1311l123 -30v-31h-584v31l123 30v1321h-389l-41 -870q-8 -158 -34 -262.5t-62.5 -167t-84 -88t-96.5 -25.5 q-92 0 -148 53.5t-56 131.5z" />
<glyph unicode="&#x41c;" horiz-adv-x="2017" d="M61 0v31l164 61v1280l-143 31v31h276q57 0 100.5 -13.5t76 -36t56 -54.5t44.5 -70l446 -854l342 854q16 43 38 74.5t52.5 54t75.5 34t111 11.5h215v-31l-123 -31v-1311l123 -30v-31h-584v31l123 30v1117l-481 -1198h-62l-624 1198v-1086l164 -61v-31h-390z" />
<glyph unicode="&#x41d;" horiz-adv-x="1566" d="M102 0v31l123 30v1311l-123 31v31h584v-31l-123 -31v-635h441v635l-123 31v31h583v-31l-123 -31v-1311l123 -30v-31h-583v31l123 30v625h-441v-625l123 -30v-31h-584z" />
<glyph unicode="&#x41e;" horiz-adv-x="1515" d="M92 717q0 180 48 319.5t135 234.5t210 144t273 49t272.5 -49t209.5 -144t135 -234.5t48 -319.5t-48 -319.5t-135 -234.5t-210 -144.5t-272 -49.5q-150 0 -273 49.5t-210 144.5t-135 234.5t-48 319.5zM451 717q0 -203 27.5 -339t71.5 -218t99.5 -116t108.5 -34t108.5 34 t99.5 116t71.5 218t27.5 339t-27.5 339t-71.5 218t-99.5 115.5t-108.5 33.5t-108.5 -33.5t-99.5 -115.5t-71.5 -218t-27.5 -339z" />
<glyph unicode="&#x41f;" horiz-adv-x="1566" d="M102 0v31l123 30v1311l-123 31v31h1362v-31l-123 -31v-1311l123 -30v-31h-583v31l123 30v1321h-441v-1321l123 -30v-31h-584z" />
<glyph unicode="&#x420;" horiz-adv-x="1382" d="M102 0v31l123 30v1311l-123 31v31h574q176 0 298 -30t196.5 -87t107.5 -138t33 -186q0 -104 -33 -185t-107.5 -138.5t-196.5 -87t-298 -29.5h-113v-492l123 -30v-31h-584zM563 604h113q61 0 113.5 23.5t91.5 72t60.5 121t21.5 172.5q0 199 -82 294t-205 95h-113v-778z " />
<glyph unicode="&#x421;" horiz-adv-x="1331" d="M92 717q0 180 47 319.5t133 234.5t205 144t262 49q72 0 132.5 -21.5t103.5 -45.5q51 -29 90 -66q16 27 35.5 48.5t36.5 35.5q20 16 41 29h51v-389h-82q-29 98 -80 178q-43 68 -114.5 124t-174.5 56q-61 0 -120.5 -33.5t-105.5 -114.5t-73.5 -215.5t-27.5 -332.5 q0 -201 28.5 -334t79.5 -214t121 -115t149 -34q74 0 141.5 32t121 86.5t85 124t31.5 147.5h52q0 -88 -36 -168t-99.5 -140.5t-149.5 -96.5t-187 -36q-162 0 -290.5 49.5t-219 144.5t-138.5 234.5t-48 319.5z" />
<glyph unicode="&#x422;" horiz-adv-x="1300" d="M51 1065v369h1198v-369h-61q-39 31 -68 78q-25 41 -45 99t-20 140h-236v-1321l123 -30v-31h-584v31l123 30v1321h-235q0 -82 -21.5 -140t-46.5 -99q-29 -47 -65 -78h-62z" />
<glyph unicode="&#x423;" horiz-adv-x="1351" d="M-20 1403v31h266q109 0 172 -52.5t104 -121.5l346 -601l299 682l-153 62v31h379v-31l-164 -62l-461 -1054q-74 -170 -147.5 -244t-159.5 -74q-92 0 -148.5 53.5t-56.5 131.5t47 126t117 48q16 0 29.5 -2t25.5 -4t27 -5v-286q47 8 99 66.5t106 189.5l-625 1085z" />
<glyph unicode="&#x424;" horiz-adv-x="1832" d="M41 737q0 111 46 210.5t135 175t221 122.5t305 55v103l-123 31v30h583v-30l-123 -31v-103q172 -8 304.5 -55t221.5 -122.5t135 -175t46 -210.5t-46 -210t-135 -175t-221.5 -123t-304.5 -55v-113l123 -30v-31h-583v31l123 30v113q-172 8 -304.5 55t-221.5 123t-135 175.5 t-46 209.5zM399 737q0 -127 29 -221t77 -158.5t110.5 -99.5t132.5 -43v1045q-70 -8 -132.5 -43t-110.5 -99.5t-77 -159t-29 -221.5zM1085 215q70 8 132.5 43t110.5 99.5t77 158.5t29 221t-29 221.5t-77 159t-110.5 99t-132.5 43.5v-1045z" />
<glyph unicode="&#x425;" horiz-adv-x="1361" d="M-10 1403v31h297q109 0 169 -48.5t107 -125.5l197 -336l284 417l-153 62v31h389v-31l-164 -62l-321 -473l475 -807l102 -30v-31h-297q-109 0 -169 48t-107 126l-221 375l-312 -457l154 -61v-31h-389v31l164 61l348 514l-451 766z" />
<glyph unicode="&#x426;" horiz-adv-x="1566" d="M102 0v31l123 30v1311l-123 31v31h584v-31l-123 -31v-1321h441v1321l-123 31v31h583v-31l-123 -31v-1321h195v-399h-61q-51 37 -89 90q-33 45 -59.5 108.5t-26.5 149.5h-1198z" />
<glyph unicode="&#x427;" horiz-adv-x="1484" d="M41 1403v31h584v-31l-123 -31v-471q0 -170 59.5 -238.5t175.5 -68.5q39 0 73 9t58 22q29 12 54 30v717l-123 31v31h583v-31l-122 -31v-1311l122 -30v-31h-583v31l123 30v543q-33 -18 -72 -31q-35 -12 -84 -21t-111 -9q-131 0 -224 25.5t-152.5 72.5t-87 113.5 t-27.5 146.5v471z" />
<glyph unicode="&#x428;" horiz-adv-x="2222" d="M102 0v31l123 30v1311l-123 31v31h584v-31l-123 -31v-1321h379v1321l-123 31v31h584v-31l-123 -31v-1321h379v1321l-123 31v31h584v-31l-123 -31v-1311l123 -30v-31h-2018z" />
<glyph unicode="&#x429;" horiz-adv-x="2222" d="M102 0v31l123 30v1311l-123 31v31h584v-31l-123 -31v-1321h379v1321l-123 31v31h584v-31l-123 -31v-1321h379v1321l-123 31v31h584v-31l-123 -31v-1321h194v-399h-61q-51 37 -88 90q-33 45 -59.5 108.5t-26.5 149.5h-1854z" />
<glyph unicode="&#x42a;" horiz-adv-x="1546" d="M51 1065v369h819v-31l-122 -31v-512h112q176 0 298 -29.5t197 -85t107.5 -135.5t32.5 -180t-32.5 -180t-107.5 -135.5t-197 -85t-298 -29.5h-573v31l123 30v1321h-164q0 -82 -21.5 -140t-46.5 -99q-29 -47 -65 -78h-62zM748 51h112q123 0 205 93.5t82 285.5 q0 193 -82 286t-205 93h-112v-758z" />
<glyph unicode="&#x42b;" horiz-adv-x="2078" d="M102 0v31l123 30v1311l-123 31v31h584v-31l-123 -31v-512h133q176 0 298 -29.5t197 -85t107.5 -135.5t32.5 -180t-32.5 -180t-107.5 -135.5t-197 -85t-298 -29.5h-594zM563 51h133q123 0 205 93.5t82 285.5q0 193 -82 286t-205 93h-133v-758zM1393 0v31l123 30v1311 l-123 31v31h583v-31l-123 -31v-1311l123 -30v-31h-583z" />
<glyph unicode="&#x42c;" horiz-adv-x="1382" d="M102 0v31l123 30v1311l-123 31v31h584v-31l-123 -31v-512h133q176 0 298 -29.5t197 -85t107.5 -135.5t32.5 -180t-32.5 -180t-107.5 -135.5t-197 -85t-298 -29.5h-594zM563 51h133q123 0 205 93.5t82 285.5q0 193 -82 286t-205 93h-133v-758z" />
<glyph unicode="&#x42d;" horiz-adv-x="1331" d="M72 410h51q0 -78 31.5 -147.5t85 -124t121 -86.5t141.5 -32q80 0 148.5 32t117.5 109t79 205t34 320h-267q-8 -43 -22 -80t-31 -65q-18 -33 -39 -60h-61v461h61q20 -27 39 -59q16 -29 30.5 -67t22.5 -79h267q0 193 -29 322t-75 208t-104.5 112.5t-119.5 33.5 q-104 0 -175 -56.5t-114 -123.5q-51 -80 -80 -178h-82v389h52q20 -12 41 -29q16 -14 35.5 -35.5t35.5 -48.5q39 37 90 66q43 25 103.5 46t132.5 21q143 0 262 -49t205 -144t133 -234.5t47 -319.5t-48 -319.5t-138 -234.5t-219 -144.5t-291 -49.5q-100 0 -186.5 36t-150 96.5 t-99 140.5t-35.5 168z" />
<glyph unicode="&#x42e;" horiz-adv-x="2078" d="M102 0v31l123 30v1311l-123 31v31h584v-31l-123 -31v-635h174q4 176 51.5 312.5t130 228.5t195.5 139t248 47t248.5 -49t197.5 -144t131.5 -234.5t47.5 -319.5t-47.5 -319.5t-131.5 -234.5t-197.5 -144.5t-248.5 -49.5q-131 0 -243.5 47t-195.5 138.5t-132.5 225.5 t-53.5 306h-174v-625l123 -30v-31h-584zM1096 717q0 -211 24.5 -348.5t62.5 -217t85 -110.5t94 -31q45 0 93 31t86 110.5t62.5 217t24.5 348.5t-24.5 348t-62.5 217t-86 110.5t-93 30.5q-47 0 -94 -30.5t-85 -110.5t-62.5 -217t-24.5 -348z" />
<glyph unicode="&#x42f;" horiz-adv-x="1443" d="M10 0v31l103 30l184 410q31 70 83 107.5t105 54.5q61 20 129 22v11q-133 4 -235 45q-45 16 -87 42.5t-75 66.5t-53.5 92.5t-20.5 121.5q0 88 33 162t109.5 126t202.5 82t311 30h542v-31l-122 -31v-1311l122 -30v-31h-604v31l144 30v574h-144l-205 -461q-35 -78 -94 -126 t-151 -48h-277zM492 1034q0 -170 83.5 -259t223.5 -89h82v696h-82q-139 0 -223 -89t-84 -259z" />
<glyph unicode="&#x430;" horiz-adv-x="1239" d="M102 246q0 47 10.5 87t24.5 70q16 37 37 68q86 20 182 37q82 14 184.5 27.5t207.5 17.5v61q0 119 -15.5 197t-44.5 123t-71 62.5t-95 17.5q-23 0 -41 -3t-32 -7q-16 -6 -29 -11v-307q-14 -4 -27 -6q-12 -2 -25.5 -3t-29.5 -1q-70 0 -112 42t-42 111q0 43 21.5 83t67.5 72 t118 51.5t172 19.5q123 0 218.5 -33t161 -91.5t99 -139t33.5 -177.5v-553l123 -30v-31h-184q-74 0 -119 23.5t-72 52.5q-31 35 -45 78q-27 -53 -67 -93q-35 -35 -92.5 -63.5t-137.5 -28.5q-96 0 -166.5 21.5t-117.5 59.5t-71 88t-24 108zM440 266q0 -123 38 -174t85 -51 t81 25.5t56 56.5q27 37 48 82v297q-47 0 -94.5 -3t-86.5 -7q-45 -7 -86 -11q-12 -27 -20 -61q-8 -29 -14.5 -68t-6.5 -86z" />
<glyph unicode="&#x431;" horiz-adv-x="1228" d="M102 492v122q0 193 33 325t93.5 218t145.5 131t189 64l471 82l31 102h31v-184q0 -92 -44 -140.5t-130 -64.5l-471 -82q-49 -8 -99.5 -40t-89.5 -87t-63.5 -136.5t-24.5 -187.5q14 53 52 109.5t96.5 102.5t134 76t168.5 30q256 0 389 -129t133 -352t-133 -352.5 t-389 -129.5t-389.5 133.5t-133.5 389.5zM451 451q0 -131 15 -216t40.5 -135.5t56.5 -70t62 -19.5t61.5 19.5t56 70t41 135t15.5 216.5q0 131 -15.5 216t-41 135t-56 69.5t-61.5 19.5t-62 -19.5t-56.5 -69.5t-40.5 -135t-15 -216z" />
<glyph unicode="&#x432;" horiz-adv-x="1239" d="M82 0v31l123 30v902l-123 30v31h522q141 0 239.5 -22.5t159 -59.5t87 -83t26.5 -91t-15.5 -79t-42 -58.5t-59 -42t-67.5 -27.5q-82 -25 -184 -29v-10q119 -4 215 -30q39 -12 77.5 -30t69.5 -43.5t49.5 -61t18.5 -81.5q0 -53 -27 -103t-89.5 -89t-164.5 -61.5t-252 -22.5 h-563zM532 51h113q86 0 140.5 58.5t54.5 166.5q0 109 -54.5 167.5t-140.5 58.5h-113v-451zM532 553h72q68 0 121 57.5t53 157.5q0 92 -52 148.5t-122 56.5h-72v-420z" />
<glyph unicode="&#x433;" d="M82 0v31l123 30v902l-123 30v31h952v-358h-61q-39 33 -68 79q-25 41 -45 97.5t-20 130.5h-308v-912l123 -30v-31h-573z" />
<glyph unicode="&#x434;" horiz-adv-x="1259" d="M-20 51h163q39 29 72 72q29 37 52.5 92t29.5 133l41 604l-143 41v31h972v-31l-123 -30v-912h185v-389h-62q-51 33 -88 84q-33 41 -59.5 104.5t-26.5 149.5h-778q0 -86 -27.5 -149.5t-60.5 -104.5q-37 -51 -86 -84h-61v389zM215 51h502v922h-318l-41 -625 q-6 -78 -28.5 -133t-48.5 -92q-31 -43 -66 -72z" />
<glyph unicode="&#x435;" horiz-adv-x="1146" d="M82 512q0 127 37 227.5t102.5 171t158.5 107.5t204 37q115 0 206 -33t154.5 -88t97 -130t33.5 -159q0 -29 -3 -50.5t-7 -37.5q-6 -20 -10 -35q-90 -18 -191 -30q-86 -12 -198.5 -21.5t-235.5 -9.5q0 -127 18.5 -212t51 -135.5t78 -72t98.5 -21.5q61 0 115.5 23t94.5 60.5 t63.5 86t23.5 97.5h51q0 -61 -27.5 -118.5t-79 -101.5t-123 -71t-159.5 -27q-262 0 -407.5 144.5t-145.5 398.5zM430 512q70 0 123 3t90 7q43 4 74 10q4 20 10 46q4 23 7 50t3 58q0 92 -14 154.5t-35.5 101.5t-49.5 55.5t-54 16.5q-27 0 -54.5 -19.5t-49 -74t-36 -152.5 t-14.5 -256z" />
<glyph unicode="&#x436;" horiz-adv-x="1802" d="M10 0v31l103 30l102 318q12 35 33.5 66.5t56.5 55t83 38t114 14.5h61q-23 8 -45 29q-18 16 -37.5 43.5t-29.5 70.5l-52 185q-23 88 -82 102v-276q-14 -4 -26 -7q-12 -2 -25.5 -3t-29.5 -1q-70 0 -112 43t-42 121q0 86 51 135t143 49q70 0 116 -43t69 -120l51 -185 q16 -53 54 -93t100 -40h71v400l-123 30v31h574v-31l-123 -30v-400h61q61 0 104.5 40t59.5 93l51 185q23 78 69 120.5t116 42.5q92 0 143 -49t51 -135q0 -78 -42 -121t-111 -43q-16 0 -31.5 1t-26.5 3q-14 2 -24 7v276q-59 -14 -82 -102l-51 -185q-12 -43 -30.5 -70.5 t-37.5 -43.5q-23 -20 -45 -29h61q66 0 114 -14.5t83 -38t56.5 -55t33.5 -66.5l103 -318l102 -30v-31h-215q-115 0 -179.5 52t-86.5 122l-113 338h-133v-451l123 -30v-31h-574v31l123 30v451h-133l-112 -338q-23 -70 -87.5 -122t-179.5 -52h-215z" />
<glyph unicode="&#x437;" d="M61 287h52q0 -49 23.5 -97.5t68.5 -86t106.5 -60.5t139.5 -23q236 0 235 246q0 123 -54 184.5t-140 61.5h-134v51h93q86 0 140 58.5t54 166.5q0 109 -54 167.5t-140 58.5q-29 0 -50.5 -3t-38.5 -7q-20 -6 -34 -11v-307q-14 -4 -27 -6q-12 -2 -25.5 -3t-29.5 -1 q-70 0 -112 42t-42 111q0 43 22.5 83t69.5 72t123 51.5t185 19.5q135 0 228 -22.5t151.5 -60.5t85 -86t26.5 -98q0 -47 -16.5 -81.5t-43 -60t-61.5 -43t-69 -30.5q-82 -27 -189 -30v-11q117 -4 209 -32q39 -12 77 -31.5t67.5 -47.5t48 -67t18.5 -88q0 -61 -26.5 -115.5 t-89 -94.5t-165 -63.5t-251.5 -23.5q-104 0 -184.5 27t-134.5 71t-83 101t-29 119z" />
<glyph unicode="&#x438;" horiz-adv-x="1392" d="M82 0v31l123 30v902l-123 30v31h573v-31l-123 -30v-676l328 563v113l-123 30v31h574v-31l-123 -30v-902l123 -30v-31h-574v31l123 30v676l-328 -563v-113l123 -30v-31h-573z" />
<glyph unicode="&#x439;" horiz-adv-x="1392" d="M82 0v31l123 30v902l-123 30v31h573v-31l-123 -30v-676l328 563v113l-123 30v31h574v-31l-123 -30v-902l123 -30v-31h-574v31l123 30v676l-328 -563v-113l123 -30v-31h-573zM389 1341q0 53 35 88t88 35q10 0 23.5 -2t23.5 -4q12 -2 25 -4v-225q0 2 29.5 -9.5t82.5 -11.5 t83 11.5t30 9.5v225q12 2 25 4q10 2 22 4t25 2q53 0 88 -34.5t35 -88.5q0 -70 -70 -122t-238 -52q-84 0 -142 14.5t-95 38t-53.5 55.5t-16.5 66z" />
<glyph unicode="&#x43a;" horiz-adv-x="1280" d="M82 0v31l123 30v902l-123 30v31h573v-31l-123 -30v-400h72q61 0 104.5 40t59.5 93l51 185q23 78 69 120.5t116 42.5q92 0 143 -49t51 -135q0 -78 -42 -121t-112 -43q-16 0 -31.5 1t-25.5 3q-14 2 -24 7v276q-59 -14 -82 -102l-52 -185q-12 -43 -30.5 -70.5t-36.5 -43.5 q-23 -20 -45 -29h61q66 0 114 -14.5t83 -38t56.5 -55t33.5 -66.5l102 -318l103 -30v-31h-215q-115 0 -179.5 52t-87.5 122l-112 338h-144v-451l123 -30v-31h-573z" />
<glyph unicode="&#x43b;" horiz-adv-x="1280" d="M-20 154q0 70 46 116.5t107 46.5q16 0 29.5 -2t25.5 -4t27 -4v-276q18 8 39.5 25.5t40 52t33 93t20.5 146.5l41 604l-143 41v31h952v-31l-123 -30v-902l123 -30v-31h-573v31l123 30v912h-297l-41 -625q-6 -104 -29 -176t-54.5 -117t-70.5 -65.5t-82 -20.5 q-92 0 -143 49.5t-51 135.5z" />
<glyph unicode="&#x43c;" horiz-adv-x="1658" d="M41 0v31l164 61v871l-144 30v31h277q109 0 168 -47t98 -117l279 -493l223 493q35 76 93 120t173 44h205v-31l-123 -30v-902l123 -30v-31h-573v31l122 30v717l-360 -798h-49l-451 798v-686l164 -61v-31h-389z" />
<glyph unicode="&#x43d;" horiz-adv-x="1372" d="M82 0v31l123 30v902l-123 30v31h573v-31l-123 -30v-420h308v420l-123 30v31h573v-31l-123 -30v-902l123 -30v-31h-573v31l123 30v431h-308v-431l123 -30v-31h-573z" />
<glyph unicode="&#x43e;" horiz-adv-x="1249" d="M82 512q0 127 37 227.5t107.5 171t171 107.5t227.5 37t227 -37t171 -107.5t107.5 -171t36.5 -227.5t-36.5 -227.5t-107.5 -171t-171 -107.5t-227 -37t-227.5 37t-171 107.5t-107.5 171t-37 227.5zM430 512q0 -150 17.5 -247t45 -153.5t62.5 -79t70 -22.5t69.5 22.5t62 79 t45 153.5t17.5 247t-17.5 247t-45 153.5t-62.5 79t-69 22.5q-35 0 -70 -22.5t-62.5 -79t-45 -153.5t-17.5 -247z" />
<glyph unicode="&#x43f;" horiz-adv-x="1372" d="M82 0v31l123 30v902l-123 30v31h1208v-31l-123 -30v-902l123 -30v-31h-573v31l123 30v912h-308v-912l123 -30v-31h-573z" />
<glyph unicode="&#x440;" horiz-adv-x="1280" d="M61 -379l123 31v1311l-123 30v31h185q72 0 118 -24.5t72 -53.5q31 -35 45 -76q27 51 68 93q35 35 91 63.5t138 28.5q88 0 165 -35t133.5 -102.5t89 -169t32.5 -236.5t-32.5 -236.5t-92 -169t-142.5 -102.5t-183 -35q-53 0 -97.5 12.5t-75.5 28.5q-37 18 -63 41v-399 l123 -31v-31h-574v31zM512 113q20 -23 45 -41q23 -16 50.5 -28.5t58.5 -12.5q39 0 72.5 19.5t58 71.5t39 146t14.5 244q0 145 -14.5 237.5t-36 144.5t-49 70.5t-54.5 18.5q-47 0 -81.5 -25.5t-57.5 -56.5q-27 -37 -45 -82v-706z" />
<glyph unicode="&#x441;" d="M82 512q0 254 145.5 398.5t407.5 144.5q100 0 172 -19.5t118 -51.5t67.5 -72t21.5 -83q0 -70 -42 -111.5t-112 -41.5q-16 0 -31.5 1t-25.5 3q-14 2 -25 6v307q-12 4 -28 11q-14 4 -32.5 7t-41.5 3q-53 0 -98.5 -22.5t-78 -79t-51 -153.5t-18.5 -247q0 -145 18.5 -240.5 t51 -150.5t78 -78t98.5 -23q61 0 115.5 23t94.5 60.5t63.5 86t23.5 97.5h51q0 -61 -27.5 -118.5t-79 -101.5t-123 -71t-159.5 -27q-262 0 -407.5 144.5t-145.5 398.5z" />
<glyph unicode="&#x442;" horiz-adv-x="1126" d="M51 666v358h1024v-358h-61q-39 33 -68 79q-25 41 -45 97.5t-20 130.5h-154v-912l123 -30v-31h-574v31l123 30v912h-153q0 -74 -21.5 -130.5t-46.5 -97.5q-29 -47 -65 -79h-62z" />
<glyph unicode="&#x443;" horiz-adv-x="1146" d="M-41 993v31h256q57 0 100 -13.5t75 -36t56.5 -54t45.5 -70.5l256 -473l215 555l-154 61v31h379v-31l-164 -61l-410 -1055q-66 -170 -140.5 -243.5t-166.5 -73.5t-143 49t-51 135q0 78 42 121t111 43q16 0 29.5 -2t26.5 -4q12 -2 26 -4v-277q27 4 52.5 18.5t50 44t49 76.5 t53.5 117l41 103l-533 983z" />
<glyph unicode="&#x444;" horiz-adv-x="1658" d="M61 512q0 106 41 200.5t119 164t190.5 111.5t254.5 46v338l-123 31v31h266q184 0 184 -185v-215q141 -4 254 -46t191 -111.5t118.5 -164t40.5 -200.5q0 -109 -40.5 -202t-118.5 -162.5t-190.5 -111.5t-254.5 -46v-338l123 -31v-31h-573v31l123 31v338q-141 4 -254 46 t-191 111.5t-119 162.5t-41 202zM410 512q0 -131 21.5 -221t56 -146.5t81.5 -83t97 -30.5v962q-49 -4 -96.5 -30.5t-82 -83t-56 -146.5t-21.5 -221zM993 31q49 4 96.5 30.5t82 83t56 146.5t21.5 221t-21.5 221t-56 146.5t-82 83t-96.5 30.5v-962z" />
<glyph unicode="&#x445;" horiz-adv-x="1136" d="M-10 993v31h276q53 0 94 -13.5t73 -36t58.5 -54t51.5 -70.5l104 -166l193 248l-154 61v31h389v-31l-164 -61l-233 -297l366 -574l103 -30v-31h-277q-53 0 -94 12.5t-73.5 36t-58.5 55t-50 70.5l-123 193l-215 -275l154 -61v-31h-390v31l164 61l254 326l-346 545z" />
<glyph unicode="&#x446;" horiz-adv-x="1382" d="M82 0v31l123 30v902l-123 30v31h573v-31l-123 -30v-912h308v912l-123 30v31h573v-31l-123 -30v-912h185v-389h-62q-51 33 -88 84q-33 41 -59.5 104.5t-26.5 149.5h-1034z" />
<glyph unicode="&#x447;" horiz-adv-x="1300" d="M31 993v31h573v-31l-123 -30v-297q0 -70 11.5 -117t31 -76t48 -41t63.5 -12q27 0 51.5 7t42.5 17q23 10 39 27v492l-123 30v31h574v-31l-123 -30v-902l123 -30v-31h-574v31l123 30v359q-25 -16 -57 -27q-29 -10 -69 -17t-89 -7q-207 0 -303 83t-96 214v297z" />
<glyph unicode="&#x448;" horiz-adv-x="1925" d="M82 0v31l123 30v902l-123 30v31h563v-31l-113 -30v-912h267v912l-113 30v31h553v-31l-113 -30v-912h267v912l-113 30v31h563v-31l-123 -30v-902l123 -30v-31h-1761z" />
<glyph unicode="&#x449;" horiz-adv-x="1935" d="M82 0v31l123 30v902l-123 30v31h563v-31l-113 -30v-912h267v912l-113 30v31h553v-31l-113 -30v-912h267v912l-113 30v31h563v-31l-123 -30v-912h185v-389h-62q-51 33 -88 84q-33 41 -59.5 104.5t-26.5 149.5h-1587z" />
<glyph unicode="&#x44a;" horiz-adv-x="1372" d="M51 666v358h789v-31l-123 -30v-349h82q150 0 252 -23.5t164.5 -64.5t89 -97t26.5 -122t-26.5 -122t-89 -97t-165 -64.5t-251.5 -23.5h-533v31l123 30v912h-143q0 -74 -21.5 -130.5t-46.5 -97.5q-29 -47 -65 -79h-62zM717 51h82q86 0 140 62.5t54 193.5t-54 193.5 t-140 62.5h-82v-512z" />
<glyph unicode="&#x44b;" horiz-adv-x="1863" d="M82 0v31l123 30v902l-123 30v31h573v-31l-123 -30v-349h103q150 0 252 -23.5t164.5 -64.5t89 -97t26.5 -122t-26.5 -122t-89 -97t-165 -64.5t-251.5 -23.5h-553zM532 51h103q86 0 140 62.5t54 193.5t-54 193.5t-140 62.5h-103v-512zM1208 0v31l123 30v902l-123 30v31h574 v-31l-123 -30v-902l123 -30v-31h-574z" />
<glyph unicode="&#x44c;" horiz-adv-x="1208" d="M82 0v31l123 30v902l-123 30v31h573v-31l-123 -30v-349h103q150 0 252 -23.5t164.5 -64.5t89 -97t26.5 -122t-26.5 -122t-89 -97t-165 -64.5t-251.5 -23.5h-553zM532 51h103q86 0 140 62.5t54 193.5t-54 193.5t-140 62.5h-103v-512z" />
<glyph unicode="&#x44d;" d="M61 287h52q0 -49 23.5 -97.5t63.5 -86t94 -60.5t116 -23q49 0 93 20.5t75.5 71t52 137.5t24.5 222h-153q-8 -31 -21.5 -58.5t-27.5 -50.5q-16 -25 -33 -45h-51v359h51q16 -23 33 -47q14 -23 27.5 -49.5t21.5 -57.5h153q0 145 -18.5 240.5t-51 151t-77.5 78t-98 22.5 q-23 0 -41.5 -3t-32.5 -7q-16 -6 -29 -11v-307q-14 -4 -26 -6t-25.5 -3t-30.5 -1q-70 0 -111.5 42t-41.5 111q0 43 21.5 83t67.5 72t117.5 51.5t172.5 19.5q131 0 233 -37t173 -107.5t109 -171t38 -227.5t-38 -227.5t-109 -171t-173 -107.5t-233 -37q-88 0 -160 27t-123 71 t-79 101t-28 119z" />
<glyph unicode="&#x44e;" horiz-adv-x="1812" d="M82 0v31l123 30v902l-123 30v31h573v-31l-123 -30v-420h154q4 119 43 214t106.5 160.5t163 101.5t209.5 36q119 0 215.5 -37t165 -107.5t105.5 -171t37 -227.5t-37 -227.5t-105.5 -171t-165 -107.5t-215.5 -37q-115 0 -210 36t-162.5 102.5t-106.5 164t-43 220.5h-154 v-431l123 -30v-31h-573zM1034 512q0 -154 15.5 -251t41 -153.5t56 -77t61.5 -20.5t61.5 20.5t56.5 77t41 153.5t15 251t-15 251t-41 153.5t-56.5 77t-61.5 20.5t-61.5 -20.5t-56 -77t-41 -153.5t-15.5 -251z" />
<glyph unicode="&#x44f;" horiz-adv-x="1290" d="M10 0v31l103 30l82 246q20 61 70 94t104 50q61 18 133 20v10q-102 4 -185 33q-35 12 -67.5 30.5t-59 45t-42 62.5t-15.5 85q0 57 26.5 109.5t89 91.5t165 62.5t252.5 23.5h542v-31l-123 -30v-902l123 -30v-31h-573v31l123 30v390h-164l-92 -287q-20 -61 -83 -112.5 t-163 -51.5h-246zM471 737q0 -117 54.5 -176t140.5 -59h92v471h-92q-86 0 -140.5 -59.5t-54.5 -176.5z" />
<glyph unicode="&#x451;" horiz-adv-x="1146" d="M82 512q0 127 37 227.5t102.5 171t158.5 107.5t204 37q115 0 206 -33t154.5 -88t97 -130t33.5 -159q0 -29 -3 -50.5t-7 -37.5q-6 -20 -10 -35q-90 -18 -191 -30q-86 -12 -198.5 -21.5t-235.5 -9.5q0 -127 18.5 -212t51 -135.5t78 -72t98.5 -21.5q61 0 115.5 23t94.5 60.5 t63.5 86t23.5 97.5h51q0 -61 -27.5 -118.5t-79 -101.5t-123 -71t-159.5 -27q-262 0 -407.5 144.5t-145.5 398.5zM246 1331q0 61 41 102.5t102 41.5t102 -41t41 -103q0 -61 -40.5 -102t-102.5 -41q-61 0 -102 41t-41 102zM430 512q70 0 123 3t90 7q43 4 74 10q4 20 10 46 q4 23 7 50t3 58q0 92 -14 154.5t-35.5 101.5t-49.5 55.5t-54 16.5q-27 0 -54.5 -19.5t-49 -74t-36 -152.5t-14.5 -256zM625 1331q0 61 41 102.5t102 41.5t102 -41t41 -103q0 -61 -41 -102t-102 -41t-102 41t-41 102z" />
<glyph unicode="&#x452;" horiz-adv-x="1341" d="M72 1116v51h133v205l-123 31v31h266q184 0 184 -185v-82h256v-51h-256v-256q27 37 64 66q33 25 83 46t120 21q88 0 161.5 -28.5t126 -75.5t82 -107.5t29.5 -126.5v-471q0 -53 -21.5 -98t-73.5 -78t-138 -51t-217 -18v41q47 0 84.5 48t37.5 156v471q0 70 -14 120t-35.5 83 t-49.5 48.5t-54 15.5q-47 0 -82 -26t-57 -56q-27 -37 -46 -82v-697l123 -30v-31h-573v31l123 30v1055h-133z" />
<glyph unicode="&#x453;" d="M82 0v31l123 30v902l-123 30v31h952v-358h-61q-39 33 -68 79q-25 41 -45 97.5t-20 130.5h-308v-912l123 -30v-31h-573zM82 0zM532 1126l82 308h267l-277 -308h-72z" />
<glyph unicode="&#x454;" d="M82 512q0 254 145.5 398.5t407.5 144.5q100 0 172 -19.5t118 -51.5t67.5 -72t21.5 -83q0 -70 -42 -111.5t-112 -41.5q-16 0 -31.5 1t-25.5 3q-14 2 -25 6v307q-12 4 -28 11q-14 4 -32.5 7t-41.5 3q-53 0 -98.5 -22.5t-78 -78t-51 -150.5t-18.5 -241h154q8 31 21 57.5 t28 49.5q16 25 33 47h51v-359h-51q-16 20 -33 45q-14 23 -27.5 50.5t-21.5 58.5h-154q4 -135 24.5 -222t52.5 -137.5t76 -71t93 -20.5q61 0 115.5 23t94.5 60.5t63.5 86t23.5 97.5h51q0 -61 -27.5 -118.5t-79 -101.5t-123 -71t-159.5 -27q-262 0 -407.5 144.5t-145.5 398.5z " />
<glyph unicode="&#x455;" horiz-adv-x="1105" d="M92 -10v348h82q29 -90 78 -160q41 -59 106.5 -108.5t163.5 -49.5q86 0 130 43t44 121q0 57 -44 98.5t-109.5 78t-143 74.5t-143.5 85t-110 108.5t-44 149.5q0 57 24 107.5t76 88.5t134 59.5t196 21.5q61 0 112.5 -17.5t88.5 -40.5q43 -25 78 -55q16 23 35.5 40t36.5 30 q20 12 41 22h51v-348h-82q-31 88 -76 158q-39 59 -98.5 109.5t-145.5 50.5q-53 0 -93 -41t-40 -103q0 -61 44 -106t109.5 -84t143.5 -76t143.5 -83t109.5 -104.5t44 -140.5q0 -66 -24.5 -120t-80 -94t-145.5 -61.5t-221 -21.5q-74 0 -130 16.5t-97 39.5q-47 25 -80 57 q-16 -23 -35.5 -41t-36.5 -29q-20 -14 -41 -22h-51z" />
<glyph unicode="&#x456;" horiz-adv-x="696" d="M82 0v31l123 30v902l-123 30v31h266q184 0 184 -184v-779l123 -30v-31h-573zM195 1280q0 35 14 66.5t37.5 55t55.5 38t67 14.5t66.5 -14.5t55 -38t38 -55t14.5 -66.5t-14.5 -66.5t-38 -55t-55.5 -38t-66 -14.5q-35 0 -67 14.5t-55.5 38t-37.5 55t-14 66.5z" />
<glyph unicode="&#x457;" horiz-adv-x="696" d="M18 0zM18 1290q0 61 41 102.5t102 41.5t102.5 -41t41.5 -103q0 -61 -41 -102t-103 -41q-61 0 -102 41t-41 102zM82 0v31l123 30v902l-123 30v31h266q184 0 184 -184v-779l123 -30v-31h-573zM397 1290q0 61 41 102.5t102 41.5t102.5 -41t41.5 -103q0 -61 -41 -102 t-103 -41q-61 0 -102 41t-41 102z" />
<glyph unicode="&#x458;" horiz-adv-x="675" d="M-225 -246q0 70 42 112t111 42q16 0 29.5 -2t26.5 -4q12 -2 26 -4v-287q4 -4 13 -6q16 -4 28 -4q27 0 52.5 15t46 53t33 103.5t12.5 166.5v1024l-123 30v31h266q184 0 184 -184v-901q0 -80 -29.5 -150t-88 -121t-142.5 -79.5t-190 -28.5q-162 0 -229.5 54t-67.5 140z M184 1280q0 35 14.5 66.5t38 55t55.5 38t66 14.5q35 0 67 -14.5t55.5 -38t37.5 -55t14 -66.5t-14 -66.5t-37.5 -55t-55.5 -38t-67 -14.5t-66.5 14.5t-55 38t-38 55t-14.5 66.5z" />
<glyph unicode="&#x459;" horiz-adv-x="1751" d="M-20 154q0 70 46 116.5t107 46.5q16 0 29.5 -2t25.5 -4t27 -4v-276q18 8 39.5 25.5t40 52t33 93t20.5 146.5l41 604l-143 41v31h952v-31l-123 -30v-349h103q150 0 252 -23.5t164.5 -64.5t89 -97t26.5 -122t-26.5 -122t-89 -97t-165 -64.5t-251.5 -23.5h-553v31l123 30 v912h-297l-41 -625q-6 -104 -29 -176t-54.5 -117t-70.5 -65.5t-82 -20.5q-92 0 -143 49.5t-51 135.5zM1075 51h103q86 0 140 62.5t54 193.5t-54 193.5t-140 62.5h-103v-512z" />
<glyph unicode="&#x45a;" horiz-adv-x="1843" d="M82 0v31l123 30v902l-123 30v31h573v-31l-123 -30v-379h308v379l-123 30v31h573v-31l-123 -30v-369h103q150 0 252 -23.5t164.5 -63.5t89 -94.5t26.5 -115.5t-26.5 -115.5t-89 -94.5t-165 -63.5t-251.5 -23.5h-553v31l123 30v471h-308v-471l123 -30v-31h-573zM1167 51 h103q86 0 140 61.5t54 184.5t-54 184.5t-140 61.5h-103v-492z" />
<glyph unicode="&#x45b;" horiz-adv-x="1361" d="M72 1116v51h133v205l-123 31v31h266q184 0 184 -185v-82h256v-51h-256v-256q27 37 64 66q33 25 83 46t120 21q88 0 161.5 -28.5t126 -75.5t82 -107.5t29.5 -126.5v-594l123 -30v-31h-266q-184 0 -185 184v471q0 70 -14 120t-35.5 83t-49.5 48.5t-54 15.5q-47 0 -82 -26 t-57 -56q-27 -37 -46 -82v-697l123 -30v-31h-573v31l123 30v1055h-133z" />
<glyph unicode="&#x45c;" horiz-adv-x="1280" d="M82 0v31l123 30v902l-123 30v31h573v-31l-123 -30v-400h72q61 0 104.5 40t59.5 93l51 185q23 78 69 120.5t116 42.5q92 0 143 -49t51 -135q0 -78 -42 -121t-112 -43q-16 0 -31.5 1t-25.5 3q-14 2 -24 7v276q-59 -14 -82 -102l-52 -185q-12 -43 -30.5 -70.5t-36.5 -43.5 q-23 -20 -45 -29h61q66 0 114 -14.5t83 -38t56.5 -55t33.5 -66.5l102 -318l103 -30v-31h-215q-115 0 -179.5 52t-87.5 122l-112 338h-144v-451l123 -30v-31h-573zM82 0zM593 1126l82 308h267l-277 -308h-72z" />
<glyph unicode="&#x45e;" horiz-adv-x="1146" d="M-41 993v31h256q57 0 100 -13.5t75 -36t56.5 -54t45.5 -70.5l256 -473l215 555l-154 61v31h379v-31l-164 -61l-410 -1055q-66 -170 -140.5 -243.5t-166.5 -73.5t-143 49t-51 135q0 78 42 121t111 43q16 0 29.5 -2t26.5 -4q12 -2 26 -4v-277q27 4 52.5 18.5t50 44t49 76.5 t53.5 117l41 103l-533 983zM291 1300q0 53 34.5 88t88.5 35q10 0 23.5 -2t23.5 -4l24 -4v-225q0 2 30 -9.5t83 -11.5t83 11.5t30 9.5v225l24 4q10 2 22.5 4t24.5 2q53 0 88 -34.5t35 -88.5q0 -70 -69.5 -122t-237.5 -52q-84 0 -142.5 14.5t-95 38t-53 55.5t-16.5 66z" />
<glyph unicode="&#x45f;" horiz-adv-x="1372" d="M82 0v31l123 30v902l-123 30v31h573v-31l-123 -30v-912h308v912l-123 30v31h573v-31l-123 -30v-902l123 -30v-31h-502q0 -78 -11 -139.5t-25 -102.5q-16 -51 -35 -86h-62q-20 35 -37 86q-14 41 -24 102.5t-10 139.5h-502z" />
<glyph unicode="&#x490;" horiz-adv-x="1208" d="M102 0v31l123 30v1311l-123 31v31h902q0 80 20 139t45 100q29 47 68 78h61v-369h-635v-1321l123 -30v-31h-584z" />
<glyph unicode="&#x491;" horiz-adv-x="1044" d="M82 0v31l123 30v902l-123 30v31h758q0 72 20.5 129t44.5 98q29 47 68 80h61v-358h-502v-912l123 -30v-31h-573z" />
<glyph unicode="&#x2000;" horiz-adv-x="937" />
<glyph unicode="&#x2001;" horiz-adv-x="1874" />
<glyph unicode="&#x2002;" horiz-adv-x="937" />
<glyph unicode="&#x2003;" horiz-adv-x="1874" />
<glyph unicode="&#x2004;" horiz-adv-x="624" />
<glyph unicode="&#x2005;" horiz-adv-x="468" />
<glyph unicode="&#x2006;" horiz-adv-x="312" />
<glyph unicode="&#x2007;" horiz-adv-x="312" />
<glyph unicode="&#x2008;" horiz-adv-x="234" />
<glyph unicode="&#x2009;" horiz-adv-x="374" />
<glyph unicode="&#x200a;" horiz-adv-x="104" />
<glyph unicode="&#x2010;" horiz-adv-x="962" d="M72 614v93h819v-93h-819z" />
<glyph unicode="&#x2011;" horiz-adv-x="962" d="M72 614v93h819v-93h-819z" />
<glyph unicode="&#x2012;" horiz-adv-x="962" d="M72 614v93h819v-93h-819z" />
<glyph unicode="&#x2013;" horiz-adv-x="1146" d="M61 604v82h1024v-82h-1024z" />
<glyph unicode="&#x2014;" horiz-adv-x="1597" d="M61 604v82h1475v-82h-1475z" />
<glyph unicode="&#x2018;" horiz-adv-x="501" d="M92 1085q0 111 38 182.5t85 112.5q53 49 123 74l20 -51q-47 -16 -86 -47q-35 -27 -66.5 -70t-41.5 -108q12 6 26 14q12 6 29 11t37 5q61 0 107.5 -46t46.5 -107t-46.5 -107.5t-107.5 -46.5q-70 0 -117 49t-47 135z" />
<glyph unicode="&#x2019;" horiz-adv-x="501" d="M92 1300q0 61 46 107.5t108 46.5q70 0 117 -49t47 -135q0 -113 -38 -183.5t-85 -111.5q-53 -49 -123 -74l-21 51q47 16 86 47q35 27 66 70t43 109q-12 -8 -27 -17q-29 -14 -65 -14q-61 0 -107.5 46t-46.5 107z" />
<glyph unicode="&#x201a;" horiz-adv-x="501" d="M92 133q0 61 46 107.5t108 46.5q70 0 117 -49.5t47 -135.5q0 -113 -38 -183.5t-85 -111.5q-53 -49 -123 -73l-21 51q47 16 86 47q35 27 66 70t43 108q-12 -8 -27 -16q-29 -14 -65 -14q-61 0 -107.5 46t-46.5 107z" />
<glyph unicode="&#x201c;" horiz-adv-x="890" d="M92 1085q0 111 38 182.5t85 112.5q53 49 123 74l20 -51q-47 -16 -86 -47q-35 -27 -66.5 -70t-41.5 -108q12 6 26 14q12 6 29 11t37 5q61 0 107.5 -46t46.5 -107t-46.5 -107.5t-107.5 -46.5q-70 0 -117 49t-47 135zM481 1085q0 111 38 182.5t85 112.5q53 49 123 74l21 -51 q-47 -16 -86 -47q-35 -27 -67 -70t-42 -108q12 6 27 14q12 6 28.5 11t36.5 5q61 0 107.5 -46t46.5 -107t-46 -107.5t-108 -46.5q-70 0 -117 49t-47 135z" />
<glyph unicode="&#x201d;" horiz-adv-x="890" d="M92 1300q0 61 46 107.5t108 46.5q70 0 117 -49t47 -135q0 -113 -38 -183.5t-85 -111.5q-53 -49 -123 -74l-21 51q47 16 86 47q35 27 66 70t43 109q-12 -8 -27 -17q-29 -14 -65 -14q-61 0 -107.5 46t-46.5 107zM481 1300q0 61 46 107.5t108 46.5q70 0 117 -49t47 -135 q0 -113 -38 -183.5t-85 -111.5q-53 -49 -123 -74l-21 51q47 16 86 47q35 27 66 70t43 109q-12 -8 -27 -17q-29 -14 -65 -14q-61 0 -107.5 46t-46.5 107z" />
<glyph unicode="&#x201e;" horiz-adv-x="890" d="M92 133q0 61 46 107.5t108 46.5q70 0 117 -49.5t47 -135.5q0 -113 -38 -183.5t-85 -111.5q-53 -49 -123 -73l-21 51q47 16 86 47q35 27 66 70t43 108q-12 -8 -27 -16q-29 -14 -65 -14q-61 0 -107.5 46t-46.5 107zM481 133q0 61 46 107.5t108 46.5q70 0 117 -49.5 t47 -135.5q0 -113 -38 -183.5t-85 -111.5q-53 -49 -123 -73l-21 51q47 16 86 47q35 27 66 70t43 108q-12 -8 -27 -16q-29 -14 -65 -14q-61 0 -107.5 46t-46.5 107z" />
<glyph unicode="&#x2022;" horiz-adv-x="675" d="M133 676q0 92 56.5 148.5t148.5 56.5t148.5 -56.5t56.5 -148.5t-56.5 -148.5t-148.5 -56.5t-148.5 56.5t-56.5 148.5z" />
<glyph unicode="&#x2026;" horiz-adv-x="1433" d="M92 133q0 61 46 107.5t108 46.5q61 0 107 -46.5t46 -107.5t-46 -107t-107 -46t-107.5 46t-46.5 107zM563 133q0 61 46 107.5t108 46.5q61 0 107 -46.5t46 -107.5t-46 -107t-107 -46t-107.5 46t-46.5 107zM1034 133q0 61 46 107.5t108 46.5q61 0 107 -46.5t46 -107.5 t-46 -107t-107 -46t-107.5 46t-46.5 107z" />
<glyph unicode="&#x202f;" horiz-adv-x="374" />
<glyph unicode="&#x2039;" horiz-adv-x="747" d="M31 512l594 492l61 -72l-481 -420l481 -420l-61 -72z" />
<glyph unicode="&#x203a;" horiz-adv-x="747" d="M61 92l482 420l-482 420l62 72l594 -492l-594 -492z" />
<glyph unicode="&#x205f;" horiz-adv-x="468" />
<glyph unicode="&#x20ac;" horiz-adv-x="1423" d="M20 553v61h166q-2 18 -2 39v64v53q0 14 2 29h-145v61h152q18 145 72 258t137 189.5t193 116.5t236 40q72 0 132.5 -21.5t103.5 -45.5q51 -29 90 -66q16 27 35.5 48.5t36.5 35.5q20 16 41 29h51v-389h-82q-29 98 -80 178q-43 68 -114.5 124t-174.5 56q-55 0 -109 -27.5 t-98.5 -92t-75 -171t-40.5 -262.5h569v-61h-573v-185h553v-61h-547q12 -152 44 -254t81 -163.5t112.5 -88.5t135.5 -27q74 0 141 32t120.5 86.5t85 124t31.5 147.5h52q0 -88 -36 -168t-99.5 -140.5t-149.5 -96.5t-186 -36q-285 0 -465 149.5t-221 434.5h-175z" />
<glyph unicode="&#x2122;" horiz-adv-x="1822" d="M61 1178v256h676v-256h-41q-23 25 -41 57q-16 29 -28.5 67.5t-12.5 90.5h-102v-584l82 -21v-30h-389v30l82 21v584h-103q0 -51 -12 -90t-29 -68q-18 -33 -41 -57h-41zM768 758v30l102 31v563l-82 21v31h175q53 0 97 -37t66 -76l170 -301l138 301q16 39 58 76t95 37h164 v-31l-82 -21v-573l82 -21v-30h-389v30l82 21v399l-215 -471h-41l-266 471v-389l102 -31v-30h-256z" />
<glyph unicode="&#x25fc;" horiz-adv-x="1025" d="M0 0v1025h1025v-1025h-1025z" />
</font>
</defs>
</svg>
